<svg width="1440" height="1024" viewBox="0 0 1440 1024" fill="none" xmlns="http://www.w3.org/2000/svg">
<g clip-path="url(#clip0_21_69)">
<rect width="1440" height="1024" fill="#474999"/>
<path d="M18.0063 873.58C22.713 875.68 34.2443 875.4 34.2443 875.4C34.2443 875.4 31.7733 867.72 31.5575 867.24C29.0277 861.84 21.0264 852.94 14.5156 853.84C13.4369 854.029 12.409 854.446 11.4979 855.065C10.5868 855.683 9.81265 856.489 9.22529 857.431C8.63793 858.373 8.25033 859.43 8.0874 860.533C7.92448 861.637 7.98983 862.764 8.27927 863.84C9.35788 868.36 13.9861 871.78 18.0063 873.58Z" fill="#263238"/>
<path d="M21.0236 911.743C25.9264 912.483 36.2026 909.443 37.0262 909.183C38.7234 915.19 40.8067 921.076 43.2625 926.803C44.6745 930.143 46.2042 933.463 47.7731 936.803C46.8513 935.403 45.9885 934.163 45.812 934.003C41.9878 929.463 31.9666 923.043 25.9068 925.643C24.9209 926.116 24.0423 926.793 23.3272 927.631C22.6121 928.47 22.076 929.451 21.7531 930.512C21.4302 931.573 21.3277 932.691 21.4519 933.795C21.5762 934.899 21.9246 935.964 22.4748 936.923C24.7105 941.063 30.0447 943.103 34.3787 943.743C38.7128 944.383 47.5966 941.983 49.9303 941.323C50.5382 942.583 51.1462 943.843 51.7737 945.103C54.7546 951.103 57.7551 957.103 60.5006 963.103C61.4812 965.223 62.3636 967.343 63.2658 969.463C62.4225 968.203 61.7165 967.163 61.5792 967.023C57.7551 962.503 47.7338 956.063 41.6936 958.683C40.7088 959.154 39.8308 959.829 39.1154 960.665C38.4001 961.501 37.8631 962.48 37.5385 963.539C37.2139 964.598 37.1088 965.714 37.23 966.816C37.3511 967.919 37.6958 968.984 38.2421 969.943C40.4778 974.083 45.812 976.123 50.146 976.783C54.48 977.443 62.5205 975.243 65.2857 974.463C66.129 976.663 66.9918 978.843 67.7175 981.023C68.1685 982.503 68.7176 983.903 69.1098 985.443C69.5021 986.983 69.9139 988.423 70.3257 989.883C70.9925 992.763 71.7181 995.703 72.2868 998.503C72.6987 1000.5 73.0713 1002.32 73.4439 1004.2C72.5025 1002.08 70.5611 997.983 70.3649 997.663C67.2468 992.603 58.2846 984.683 51.9306 986.343C50.8871 986.657 49.9192 987.189 49.0882 987.906C48.2573 988.622 47.5815 989.506 47.1038 990.503C46.6261 991.5 46.357 992.588 46.3136 993.696C46.2701 994.805 46.4532 995.911 46.8513 996.943C48.4398 1001.38 53.421 1004.22 57.6178 1005.54C62.2264 1006.98 72.4241 1005.66 73.6988 1005.54C74.3264 1008.66 74.8951 1011.68 75.3854 1014.56C75.7384 1016.68 76.0717 1018.72 76.3855 1020.68H80.4842C80.092 1018.5 79.6606 1016.22 79.2095 1013.84C78.6016 1010.66 77.876 1007.3 77.1111 1003.84C80.1822 1002.58 83.1809 1001.13 86.093 999.523C89.4661 1003.24 98.0753 1007.52 99.1931 1008.14C98.0165 1011.08 96.8398 1013.92 95.7024 1016.6L93.9374 1020.6H98.2518L99.2912 1018.08C100.487 1015.1 101.723 1011.88 102.939 1008.58C104.174 1008.84 114.294 1010.94 119 1009.86C123.275 1008.86 128.453 1006.4 130.355 1002.1C130.817 1001.11 131.074 1000.03 131.11 998.938C131.146 997.842 130.961 996.749 130.565 995.729C130.17 994.708 129.573 993.782 128.811 993.007C128.05 992.231 127.14 991.624 126.139 991.223C119.902 989.083 110.45 996.303 106.92 1001.12C106.704 1001.4 104.821 1004.74 103.664 1006.86C104.155 1005.5 104.645 1004.2 105.155 1002.86C106.135 1000.08 107.116 997.303 108.038 994.303C108.469 992.843 108.901 991.363 109.352 989.883C109.803 988.403 110.116 986.803 110.509 985.243C111.372 981.623 112.038 977.903 112.646 974.143C115.019 975.023 123.511 978.023 127.884 977.703C132.257 977.383 137.69 975.703 140.278 971.803C140.894 970.887 141.317 969.85 141.518 968.759C141.72 967.667 141.696 966.545 141.449 965.463C141.202 964.381 140.736 963.363 140.082 962.475C139.428 961.587 138.6 960.847 137.65 960.303C131.767 957.243 121.354 962.903 117.196 967.123C116.941 967.383 114.294 970.743 112.882 972.623C113.215 970.363 113.588 968.103 113.862 965.803C114.666 959.163 115.274 952.423 115.823 945.683C116.019 943.683 116.235 941.583 116.451 939.523C117.294 939.843 127.296 943.643 132.14 943.283C136.493 942.983 141.945 941.283 144.514 937.383C145.131 936.468 145.554 935.433 145.757 934.342C145.96 933.251 145.938 932.129 145.693 931.047C145.448 929.966 144.984 928.948 144.332 928.059C143.68 927.17 142.854 926.429 141.906 925.883C136.023 922.823 125.609 928.483 121.452 932.703C121.138 933.023 117.333 937.863 116.412 939.143C116.882 934.623 117.392 930.123 118.079 925.703C118.957 919.725 120.221 913.812 121.863 908.003C122.256 908.163 132.669 912.163 137.69 911.803C142.063 911.503 147.495 909.803 150.084 905.903C150.701 904.988 151.124 903.953 151.327 902.862C151.53 901.771 151.508 900.649 151.263 899.567C151.017 898.486 150.554 897.468 149.902 896.579C149.25 895.69 148.424 894.949 147.475 894.403C141.592 891.343 131.159 897.003 127.002 901.223C126.688 901.543 122.589 906.763 121.922 907.783C121.922 907.443 122.079 907.083 122.177 906.743C123.978 900.968 126.275 895.366 129.041 890.003C130.551 887.023 132.14 884.263 133.748 881.603C135.709 882.563 144.181 886.803 148.75 886.983C153.32 887.163 158.752 886.163 161.693 882.503C162.404 881.662 162.934 880.679 163.252 879.617C163.569 878.555 163.667 877.437 163.538 876.335C163.408 875.233 163.056 874.17 162.502 873.214C161.948 872.258 161.205 871.43 160.321 870.783C154.849 867.083 143.847 871.523 139.258 875.263C139.003 875.463 136.709 877.803 135.042 879.543C135.787 878.363 136.533 877.123 137.258 876.003C140.004 871.783 142.788 868.003 145.259 864.843C146.691 863.003 148.005 861.363 149.182 859.863C151.496 859.863 160.791 859.523 164.87 857.583C168.95 855.643 173.362 852.143 174.323 847.583C174.574 846.504 174.602 845.384 174.405 844.293C174.209 843.202 173.792 842.165 173.182 841.247C172.572 840.33 171.781 839.551 170.86 838.962C169.939 838.372 168.908 837.985 167.832 837.823C161.301 837.103 153.535 846.223 151.143 851.683C150.947 852.163 148.554 859.923 148.672 859.923H148.809C147.574 861.363 146.26 862.903 144.887 864.623C142.337 867.823 139.474 871.463 136.631 875.643C133.51 880.102 130.649 884.743 128.061 889.543C125.148 894.916 122.701 900.537 120.746 906.343V906.563C120.746 904.563 120.746 899.103 120.746 898.683C119.981 892.683 115.117 881.743 108.665 880.523C107.587 880.36 106.488 880.428 105.437 880.723C104.386 881.017 103.407 881.532 102.562 882.234C101.717 882.935 101.024 883.809 100.529 884.799C100.033 885.789 99.7452 886.874 99.6834 887.983C99.3108 892.703 102.664 897.423 105.939 900.383C109.626 903.743 119.844 907.003 120.667 907.263C118.859 913.148 117.431 919.148 116.392 925.223C115.764 928.803 115.255 932.443 114.764 936.083C114.764 934.383 114.764 932.863 114.764 932.663C113.999 926.663 109.136 915.723 102.664 914.503C101.588 914.343 100.49 914.413 99.4417 914.709C98.3931 915.005 97.4164 915.52 96.5735 916.222C95.7307 916.924 95.0402 917.796 94.5458 918.785C94.0515 919.773 93.7641 920.855 93.7021 921.963C93.3294 926.663 96.6829 931.383 99.958 934.363C103.233 937.343 111.921 940.363 114.235 941.083L113.705 945.283C112.921 952.003 112.176 958.703 111.234 965.283C110.901 967.603 110.489 969.863 110.097 972.123C110.097 970.623 110.097 969.363 109.999 969.163C109.254 963.163 104.37 952.223 97.9184 951.003C96.8418 950.843 95.7444 950.913 94.6958 951.209C93.6473 951.505 92.6705 952.02 91.8277 952.722C90.9848 953.424 90.2943 954.296 89.7999 955.285C89.3056 956.273 89.0183 957.355 88.9562 958.463C88.5836 963.163 91.9371 967.883 95.1925 970.863C98.4479 973.843 106.332 976.543 109.057 977.443C108.587 979.763 108.116 982.063 107.547 984.283C107.116 985.783 106.822 987.263 106.312 988.743C105.802 990.223 105.39 991.703 104.92 993.163C103.939 995.923 102.958 998.783 101.899 1001.46C101.213 1003.32 100.507 1005.08 99.8011 1006.86C100.154 1004.56 100.762 1000.04 100.762 999.663C100.691 994.406 99.3002 989.256 96.7222 984.703C96.7423 984.114 96.7029 983.524 96.6045 982.943C96.4571 981.846 96.0878 980.791 95.52 979.847C94.9523 978.902 94.1983 978.089 93.306 977.457C92.4137 976.825 91.4025 976.389 90.3364 976.177C89.2703 975.965 88.1726 975.98 87.1128 976.223C80.7588 977.943 76.7385 989.303 76.4444 995.283C76.4444 995.623 76.6405 999.483 76.817 1001.9C76.5032 1000.48 76.209 999.123 75.8756 997.683C75.2089 994.803 74.444 991.983 73.6596 988.923C73.2282 987.463 72.7967 985.983 72.3457 984.483C71.8946 982.983 71.3259 981.483 70.816 979.963C69.5609 976.463 68.1293 972.983 66.5996 969.503C69.051 968.903 77.7387 966.643 81.2294 963.903C84.7202 961.163 88.3875 956.743 88.3679 952.003C88.3841 950.895 88.1746 949.796 87.7525 948.775C87.3304 947.754 86.705 946.834 85.9159 946.073C85.1269 945.311 84.1913 944.725 83.1685 944.352C82.1457 943.978 81.058 943.825 79.9743 943.903C73.4439 944.623 67.7763 955.223 66.58 961.083C66.58 961.443 66.129 965.743 65.9525 968.123C65.0307 966.123 64.109 963.943 63.0893 961.883C60.1672 955.883 57.0491 949.883 53.9309 943.883L51.1265 938.403C52.009 938.183 62.3833 935.723 66.3055 932.683C69.7766 929.963 73.4635 925.503 73.4243 920.783C73.4433 919.674 73.2357 918.572 72.8149 917.549C72.394 916.526 71.7691 915.603 70.9797 914.839C70.1903 914.076 69.2538 913.488 68.2296 913.113C67.2055 912.739 66.1161 912.585 65.0307 912.663C58.5003 913.383 52.8327 923.983 51.656 929.843C51.558 930.283 51.0089 936.483 50.95 938.063C48.8909 934.063 46.8906 930.063 45.0667 925.923C42.5511 920.506 40.3828 914.927 38.5755 909.223C38.9873 909.223 49.8322 906.623 53.8329 903.483C57.304 900.763 60.9909 896.323 60.9713 891.583C60.9875 890.475 60.778 889.376 60.3559 888.355C59.9338 887.335 59.3085 886.414 58.5194 885.653C57.7303 884.891 56.7947 884.305 55.7719 883.932C54.7491 883.558 53.6614 883.406 52.5778 883.483C46.0473 884.203 40.3797 894.803 39.1834 900.663C39.1834 901.123 38.5167 907.783 38.497 909.003C38.3794 908.663 38.2421 908.323 38.144 907.983C36.5192 902.156 35.41 896.192 34.8298 890.163C34.4572 886.843 34.3003 883.643 34.2022 880.523C36.1633 880.263 45.7139 878.983 49.6165 876.523C53.5191 874.063 57.4609 870.203 57.9904 865.503C58.1272 864.403 58.0382 863.286 57.7291 862.223C57.4201 861.16 56.8977 860.174 56.1951 859.328C55.4925 858.481 54.6251 857.793 53.6479 857.307C52.6707 856.821 51.605 856.547 50.5186 856.503C43.9489 856.503 37.1831 866.383 35.3593 872.083C35.3593 872.383 34.6141 875.643 34.163 878.083C34.163 876.683 34.163 875.223 34.163 873.883C34.163 868.823 34.4768 864.183 34.7906 860.083C34.9867 857.743 35.2024 855.643 35.4377 853.663C37.3988 852.343 44.9295 846.863 47.2043 842.963C49.4792 839.063 51.3619 833.643 49.6557 829.243C49.2806 828.201 48.6968 827.25 47.9416 826.45C47.1865 825.651 46.2763 825.02 45.2692 824.599C44.262 824.177 43.1799 823.974 42.0917 824.003C41.0034 824.031 39.9329 824.29 38.9481 824.763C33.0648 827.843 31.594 839.803 32.5549 845.703C32.5549 846.223 34.8298 854.043 34.9474 853.983L35.0455 853.883C34.7906 855.883 34.5356 857.883 34.3003 860.023C33.9081 864.143 33.4962 868.783 33.3786 873.863C33.1844 879.34 33.3154 884.823 33.7708 890.283C34.2362 896.401 35.2338 902.465 36.7517 908.403V908.623C35.7123 906.963 32.6726 902.443 32.398 902.123C28.4758 897.583 18.5526 891.163 12.5125 893.763C11.5276 894.234 10.6496 894.909 9.93426 895.745C9.21893 896.581 8.68191 897.56 8.35731 898.619C8.03272 899.678 7.92765 900.794 8.04878 901.896C8.1699 902.999 8.51458 904.064 9.06091 905.023C11.3554 909.063 16.6896 911.103 21.0236 911.743Z" fill="#263238"/>
<path d="M134.594 876.16C134.594 876.16 136.692 868.34 136.771 867.84C137.575 861.84 135.712 849.98 129.809 847.06C128.812 846.617 127.736 846.389 126.649 846.393C125.562 846.396 124.487 846.63 123.493 847.08C122.499 847.529 121.608 848.184 120.875 849.004C120.143 849.823 119.585 850.789 119.238 851.84C117.65 856.28 119.65 861.74 122.043 865.48C124.828 869.88 134.594 876.16 134.594 876.16Z" fill="#263238"/>
<path d="M1217.06 873.58C1221.77 875.68 1233.3 875.4 1233.3 875.4C1233.3 875.4 1230.83 867.72 1230.61 867.24C1228.08 861.84 1220.08 852.94 1213.57 853.84C1212.49 854.029 1211.47 854.446 1210.55 855.065C1209.64 855.683 1208.87 856.489 1208.28 857.431C1207.69 858.373 1207.31 859.43 1207.14 860.533C1206.98 861.637 1207.05 862.764 1207.34 863.84C1208.41 868.36 1213.04 871.78 1217.06 873.58Z" fill="#263238"/>
<path d="M1221.02 907.62C1225.93 908.36 1236.2 905.32 1237.03 905.06C1238.72 911.067 1240.81 916.953 1243.26 922.68C1244.68 926.02 1246.21 929.34 1247.77 932.68C1246.85 931.28 1245.99 930.04 1245.81 929.88C1241.89 925.34 1231.97 918.92 1225.91 921.52C1224.92 921.993 1224.04 922.67 1223.33 923.508C1222.61 924.346 1222.08 925.327 1221.75 926.389C1221.43 927.45 1221.33 928.568 1221.45 929.672C1221.58 930.776 1221.93 931.841 1222.48 932.8C1224.71 936.94 1230.05 938.98 1234.38 939.62C1238.71 940.26 1247.6 937.86 1249.93 937.2C1250.54 938.46 1251.15 939.72 1251.77 940.98C1254.76 946.98 1257.66 952.98 1260.5 958.98C1261.48 961.1 1262.36 963.22 1263.27 965.34C1262.42 964.08 1261.72 963.04 1261.58 962.9C1257.66 958.38 1247.73 951.94 1241.69 954.56C1240.71 955.031 1239.83 955.706 1239.12 956.542C1238.4 957.378 1237.86 958.356 1237.54 959.415C1237.21 960.474 1237.11 961.591 1237.23 962.693C1237.35 963.796 1237.7 964.86 1238.24 965.82C1240.48 969.96 1245.81 972 1250.15 972.66C1254.48 973.32 1262.52 971.12 1265.29 970.34C1266.13 972.54 1266.99 974.72 1267.72 976.9C1268.17 978.38 1268.72 979.78 1269.11 981.32C1269.5 982.86 1269.91 984.3 1270.33 985.76C1270.99 988.64 1271.72 991.58 1272.29 994.38C1272.7 996.38 1273.07 998.2 1273.44 1000.08C1272.5 997.96 1270.56 993.86 1270.37 993.54C1267.25 988.48 1258.29 980.56 1251.93 982.22C1250.89 982.534 1249.92 983.066 1249.09 983.782C1248.26 984.499 1247.58 985.383 1247.1 986.38C1246.63 987.377 1246.36 988.464 1246.31 989.573C1246.27 990.682 1246.45 991.787 1246.85 992.82C1248.44 997.26 1253.42 1000.1 1257.62 1001.42C1262.23 1002.86 1272.43 1001.54 1273.7 1001.42C1274.33 1004.54 1274.9 1007.56 1275.39 1010.44C1275.74 1012.56 1276.07 1014.6 1276.39 1016.56H1280.49C1280.09 1014.38 1279.66 1012.1 1279.21 1009.72C1278.6 1006.54 1277.88 1003.18 1277.11 999.72C1280.18 998.453 1283.18 997.011 1286.09 995.4C1289.47 999.12 1298.08 1003.4 1299.19 1004.02C1298.02 1006.96 1296.84 1009.8 1295.7 1012.48L1293.94 1016.48H1298.39L1299.43 1013.96C1300.63 1010.98 1301.86 1007.76 1303.08 1004.46C1304.31 1004.72 1314.43 1006.82 1319.14 1005.74C1323.41 1004.74 1328.59 1002.28 1330.49 997.98C1330.97 996.981 1331.23 995.893 1331.27 994.785C1331.31 993.676 1331.12 992.571 1330.72 991.541C1330.32 990.51 1329.71 989.576 1328.93 988.798C1328.16 988.019 1327.23 987.414 1326.22 987.02C1319.98 984.88 1310.53 992.1 1307 996.92C1306.78 997.2 1304.9 1000.54 1303.74 1002.66C1304.23 1001.3 1304.72 1000 1305.23 998.66C1306.21 995.88 1307.2 993.1 1308.12 990.1C1308.55 988.64 1308.98 987.16 1309.43 985.68C1309.88 984.2 1310.2 982.6 1310.59 981.04C1311.45 977.42 1312.12 973.7 1312.73 969.94C1315.1 970.82 1323.59 973.82 1327.96 973.5C1332.34 973.18 1337.77 971.5 1340.36 967.6C1340.97 966.676 1341.38 965.633 1341.58 964.536C1341.77 963.439 1341.74 962.313 1341.48 961.231C1341.22 960.148 1340.74 959.133 1340.08 958.249C1339.41 957.365 1338.57 956.633 1337.61 956.1C1331.73 953.04 1321.32 958.7 1317.16 962.92C1316.9 963.18 1314.26 966.54 1312.84 968.42C1313.18 966.16 1313.55 963.9 1313.82 961.6C1314.63 954.96 1315.24 948.22 1315.88 941.48C1316.08 939.48 1316.29 937.38 1316.51 935.32C1317.35 935.64 1327.36 939.44 1332.2 939.08C1336.55 938.78 1342 937.08 1344.57 933.18C1345.19 932.265 1345.61 931.229 1345.82 930.139C1346.02 929.048 1346 927.926 1345.75 926.844C1345.51 925.762 1345.04 924.745 1344.39 923.856C1343.74 922.967 1342.91 922.226 1341.97 921.68C1336.08 918.62 1325.65 924.28 1321.51 928.5C1321.2 928.82 1317.39 933.66 1316.47 934.94C1316.94 930.42 1317.45 925.92 1318.14 921.5C1319.02 915.521 1320.28 909.609 1321.92 903.8C1322.32 903.96 1332.73 907.96 1337.75 907.6C1342.12 907.3 1347.55 905.6 1350.14 901.7C1350.76 900.785 1351.18 899.749 1351.39 898.659C1351.59 897.568 1351.57 896.446 1351.32 895.364C1351.08 894.282 1350.61 893.265 1349.96 892.376C1349.31 891.486 1348.48 890.746 1347.54 890.2C1341.65 887.14 1331.22 892.8 1327.06 897.02C1326.75 897.34 1322.65 902.56 1321.98 903.58C1321.98 903.24 1322.14 902.88 1322.24 902.54C1324.04 896.765 1326.33 891.163 1329.1 885.8C1330.61 882.82 1332.2 880.06 1333.81 877.4C1335.77 878.36 1344.24 882.6 1348.81 882.78C1353.38 882.96 1358.81 881.96 1361.75 878.3C1362.46 877.459 1362.99 876.476 1363.31 875.414C1363.63 874.352 1363.73 873.234 1363.6 872.132C1363.47 871.029 1363.12 869.966 1362.56 869.011C1362.01 868.055 1361.27 867.227 1360.38 866.58C1354.91 862.88 1343.91 867.32 1339.32 871.06C1339.06 871.26 1336.77 873.6 1335.1 875.34C1335.85 874.16 1336.59 872.92 1337.32 871.8C1340.06 867.58 1342.85 863.8 1345.32 860.64C1346.75 858.8 1348.06 857.16 1349.24 855.66C1351.56 855.66 1360.85 855.32 1364.93 853.38C1369.01 851.44 1373.42 847.94 1374.38 843.38C1374.63 842.301 1374.66 841.18 1374.47 840.09C1374.27 838.999 1373.85 837.962 1373.24 837.044C1372.63 836.126 1371.84 835.348 1370.92 834.758C1370 834.169 1368.97 833.781 1367.89 833.62C1361.36 832.9 1353.6 842.02 1351.2 847.48C1351.01 847.96 1348.61 855.72 1348.73 855.72H1348.87C1347.63 857.16 1346.32 858.7 1344.95 860.42C1342.4 863.62 1339.53 867.26 1336.69 871.44C1333.57 875.899 1330.71 880.54 1328.12 885.34C1325.21 890.712 1322.76 896.334 1320.81 902.14V902.36C1320.81 900.36 1320.81 894.9 1320.71 894.48C1319.94 888.48 1315.08 877.54 1308.63 876.32C1307.55 876.157 1306.45 876.225 1305.4 876.519C1304.35 876.814 1303.37 877.328 1302.52 878.03C1301.68 878.732 1300.99 879.606 1300.49 880.596C1299.99 881.586 1299.71 882.67 1299.65 883.78C1299.27 888.5 1302.63 893.22 1305.9 896.18C1309.57 899.54 1319.81 902.8 1320.63 903.06C1318.79 909.015 1317.34 915.089 1316.29 921.24C1315.67 924.82 1315.16 928.46 1314.67 932.1C1314.67 930.4 1314.67 928.88 1314.67 928.68C1313.9 922.68 1309.04 911.74 1302.57 910.52C1301.49 910.36 1300.39 910.43 1299.34 910.726C1298.3 911.022 1297.32 911.537 1296.48 912.239C1295.63 912.94 1294.94 913.813 1294.45 914.801C1293.95 915.79 1293.67 916.872 1293.6 917.98C1293.23 922.68 1296.59 927.4 1299.86 930.38C1303.14 933.36 1311.82 936.38 1314.14 937.1L1313.61 941.3C1312.82 948.02 1312.08 954.72 1311.14 961.3C1310.8 963.62 1310.39 965.88 1310 968.14C1310 966.64 1310 965.38 1310 965.18C1309.25 959.18 1304.37 948.24 1297.92 947.02C1296.84 946.86 1295.75 946.93 1294.7 947.226C1293.65 947.522 1292.67 948.037 1291.83 948.739C1290.99 949.44 1290.3 950.313 1289.8 951.301C1289.31 952.29 1289.02 953.372 1288.96 954.48C1288.58 959.18 1291.94 963.9 1295.19 966.88C1298.45 969.86 1306.33 972.56 1309.06 973.46C1308.59 975.78 1308.12 978.08 1307.55 980.3C1307.12 981.8 1306.82 983.28 1306.31 984.76C1305.8 986.24 1305.39 987.72 1304.92 989.18C1303.94 991.94 1302.96 994.8 1301.9 997.48C1301.21 999.34 1300.51 1001.1 1299.8 1002.88C1300.15 1000.58 1300.76 996.06 1300.76 995.68C1300.69 990.423 1299.3 985.273 1296.72 980.72C1296.74 980.131 1296.7 979.541 1296.61 978.96C1296.46 977.862 1296.09 976.808 1295.52 975.864C1294.95 974.919 1294.2 974.105 1293.31 973.474C1292.41 972.842 1291.4 972.406 1290.34 972.194C1289.27 971.981 1288.17 971.997 1287.11 972.24C1280.76 973.96 1276.74 985.32 1276.45 991.3C1276.45 991.64 1276.64 995.5 1276.82 997.92C1276.5 996.5 1276.21 995.14 1275.88 993.7C1275.21 990.82 1274.45 988 1273.66 984.94C1273.23 983.48 1272.8 982 1272.35 980.5C1271.9 979 1271.33 977.5 1270.82 975.98C1269.56 972.48 1268.13 969 1266.6 965.52C1269.05 964.92 1277.74 962.66 1281.23 959.92C1284.72 957.18 1288.39 952.76 1288.37 948.02C1288.39 946.912 1288.18 945.813 1287.75 944.792C1287.33 943.771 1286.71 942.851 1285.92 942.089C1285.13 941.328 1284.19 940.742 1283.17 940.368C1282.15 939.995 1281.06 939.842 1279.98 939.92C1273.44 940.64 1267.78 951.24 1266.58 957.1C1266.58 957.46 1266.13 961.76 1265.95 964.14C1265.03 962.14 1264.11 959.96 1263.09 957.9C1260.17 951.9 1257.05 945.9 1253.93 939.9L1251.13 934.42C1252.01 934.2 1262.38 931.74 1266.31 928.7C1269.78 925.98 1273.46 921.52 1273.43 916.8C1273.44 915.69 1273.24 914.589 1272.82 913.566C1272.4 912.543 1271.77 911.62 1270.98 910.856C1270.19 910.092 1269.25 909.505 1268.23 909.13C1267.21 908.755 1266.12 908.602 1265.03 908.68C1258.5 909.4 1252.83 920 1251.66 925.86C1251.66 926.3 1251.01 932.5 1250.95 934.08C1248.99 930.08 1246.89 926.08 1245.07 921.94C1242.55 916.477 1240.38 910.851 1238.58 905.1C1238.99 905.1 1249.83 902.5 1253.83 899.36C1257.31 896.64 1260.99 892.2 1260.97 887.46C1260.99 886.352 1260.78 885.253 1260.36 884.232C1259.93 883.211 1259.31 882.291 1258.52 881.529C1257.73 880.768 1256.8 880.182 1255.77 879.808C1254.75 879.435 1253.66 879.282 1252.58 879.36C1246.05 880.08 1240.38 890.68 1239.18 896.54C1239.18 897 1238.52 903.66 1238.5 904.88C1238.38 904.54 1238.24 904.2 1238.15 903.86C1236.52 898.033 1235.41 892.069 1234.83 886.04C1234.46 882.72 1234.3 879.52 1234.2 876.4C1236.26 876.14 1245.71 874.86 1249.62 872.4C1253.52 869.94 1257.46 866.08 1257.99 861.38C1258.13 860.28 1258.04 859.163 1257.73 858.1C1257.42 857.037 1256.9 856.051 1256.2 855.204C1255.49 854.358 1254.63 853.67 1253.65 853.184C1252.67 852.697 1251.61 852.424 1250.52 852.38C1243.95 852.38 1237.18 862.26 1235.36 867.96C1235.26 868.26 1234.62 871.52 1234.16 873.96C1234.16 872.56 1234.16 871.1 1234.16 869.76C1234.16 864.7 1234.48 860.06 1234.79 855.96C1234.99 853.62 1235.2 851.52 1235.44 849.54C1237.4 848.22 1244.93 842.74 1247.21 838.84C1249.48 834.94 1251.36 829.52 1249.66 825.12C1249.28 824.078 1248.7 823.127 1247.94 822.327C1247.19 821.527 1246.28 820.897 1245.27 820.475C1244.26 820.054 1243.18 819.851 1242.09 819.879C1241 819.908 1239.93 820.167 1238.95 820.64C1233.07 823.72 1231.59 835.68 1232.56 841.58C1232.56 842.1 1234.83 849.92 1234.95 849.86L1235.05 849.76C1234.79 851.76 1234.54 853.76 1234.3 855.9C1233.91 860.02 1233.5 864.66 1233.38 869.74C1233.19 875.216 1233.32 880.7 1233.77 886.16C1234.24 892.278 1235.23 898.342 1236.75 904.28V904.5C1235.71 902.84 1232.67 898.32 1232.4 898C1228.48 893.46 1218.55 887.04 1212.51 889.64C1211.53 890.111 1210.65 890.786 1209.94 891.622C1209.22 892.458 1208.68 893.436 1208.36 894.495C1208.03 895.554 1207.93 896.671 1208.05 897.773C1208.17 898.876 1208.52 899.94 1209.06 900.9C1211.36 904.94 1216.69 906.98 1221.02 907.62Z" fill="#263238"/>
<path d="M1333.69 876.16C1333.69 876.16 1335.79 868.34 1335.87 867.84C1336.67 861.84 1334.81 849.98 1328.9 847.06C1327.91 846.617 1326.83 846.389 1325.74 846.393C1324.66 846.396 1323.58 846.63 1322.59 847.08C1321.59 847.529 1320.7 848.184 1319.97 849.004C1319.24 849.823 1318.68 850.789 1318.33 851.84C1316.75 856.28 1318.75 861.74 1321.14 865.48C1323.88 869.88 1333.69 876.16 1333.69 876.16Z" fill="#263238"/>
<g opacity="0.3">
<path d="M720.056 918.42C922.223 918.42 1086.11 751.28 1086.11 545.103C1086.11 338.926 922.223 171.786 720.056 171.786C517.889 171.786 354 338.926 354 545.103C354 751.28 517.889 918.42 720.056 918.42Z" stroke="black" stroke-linecap="round" stroke-linejoin="round"/>
<path d="M720.056 915.634C852.463 915.634 959.8 748.494 959.8 542.317C959.8 336.14 852.463 169 720.056 169C587.65 169 480.313 336.14 480.313 542.317C480.313 748.494 587.65 915.634 720.056 915.634Z" stroke="black" stroke-linecap="round" stroke-linejoin="round"/>
<path d="M720.056 915.634C766.314 915.634 803.813 748.494 803.813 542.317C803.813 336.14 766.314 169 720.056 169C673.799 169 636.299 336.14 636.299 542.317C636.299 748.494 673.799 915.634 720.056 915.634Z" stroke="black" stroke-linecap="round" stroke-linejoin="round"/>
<path d="M530.931 225.832H909.848" stroke="black" stroke-linecap="round" stroke-linejoin="round"/>
<path d="M391.114 384.618H1049.64" stroke="black" stroke-linecap="round" stroke-linejoin="round"/>
<path d="M355.51 543.381H1085.25" stroke="black" stroke-linecap="round" stroke-linejoin="round"/>
<path d="M388.005 702.145H1052.75" stroke="black" stroke-linecap="round" stroke-linejoin="round"/>
<path d="M526.134 860.931H914.623" stroke="black" stroke-linecap="round" stroke-linejoin="round"/>
</g>
<path d="M1421.66 423.86V343.56C1421.66 341.926 1421.03 340.359 1419.9 339.204C1418.76 338.049 1417.23 337.4 1415.62 337.4H1307.21C1305.61 337.4 1304.08 338.049 1302.94 339.204C1301.81 340.359 1301.17 341.926 1301.17 343.56V423.86H1294.19V426.48C1294.19 427.382 1294.54 428.247 1295.17 428.884C1295.79 429.522 1296.64 429.88 1297.53 429.88H1425.31C1425.75 429.88 1426.18 429.792 1426.59 429.621C1426.99 429.45 1427.36 429.199 1427.66 428.883C1427.97 428.567 1428.21 428.192 1428.38 427.78C1428.55 427.367 1428.63 426.926 1428.63 426.48V423.86H1421.66Z" fill="#263238" stroke="#263238" stroke-linecap="round" stroke-linejoin="round"/>
<path d="M1313.75 335.1H1417.82C1418.9 335.1 1419.97 335.317 1420.97 335.738C1421.96 336.159 1422.87 336.776 1423.63 337.554C1424.39 338.333 1425 339.256 1425.41 340.273C1425.83 341.29 1426.04 342.38 1426.04 343.48V421.76H1305.53V343.56C1305.52 342.453 1305.72 341.354 1306.13 340.329C1306.54 339.303 1307.14 338.369 1307.91 337.583C1308.67 336.796 1309.58 336.172 1310.58 335.745C1311.58 335.319 1312.66 335.1 1313.75 335.1Z" fill="white" stroke="#263238" stroke-linecap="round" stroke-linejoin="round"/>
<path d="M1316.04 338.24H1415.59C1417.76 338.24 1419.85 339.123 1421.4 340.694C1422.94 342.266 1423.8 344.397 1423.8 346.62V418.78H1307.78V346.62C1307.78 345.516 1308 344.423 1308.41 343.404C1308.83 342.384 1309.44 341.459 1310.2 340.68C1310.97 339.902 1311.88 339.285 1312.88 338.866C1313.88 338.448 1314.96 338.235 1316.04 338.24Z" fill="#EB657F" stroke="#263238" stroke-linecap="round" stroke-linejoin="round"/>
<path d="M1298.57 421.64H1433V423.1C1433 424.32 1432.52 425.49 1431.68 426.353C1430.83 427.215 1429.69 427.7 1428.49 427.7H1303.08C1301.88 427.7 1300.73 427.215 1299.89 426.353C1299.04 425.49 1298.57 424.32 1298.57 423.1V421.68V421.64Z" fill="white" stroke="#263238" stroke-linecap="round" stroke-linejoin="round"/>
<path d="M1189.02 164.76H1105.26C1098.49 164.76 1093 170.356 1093 177.26V351.88C1093 358.784 1098.49 364.38 1105.26 364.38H1189.02C1195.78 364.38 1201.27 358.784 1201.27 351.88V177.26C1201.27 170.356 1195.78 164.76 1189.02 164.76Z" fill="#263238" stroke="#263238" stroke-linecap="round" stroke-linejoin="round"/>
<path d="M1197.61 156H1113.85C1107.08 156 1101.59 161.596 1101.59 168.5V343.12C1101.59 350.024 1107.08 355.62 1113.85 355.62H1197.61C1204.37 355.62 1209.86 350.024 1209.86 343.12V168.5C1209.86 161.596 1204.37 156 1197.61 156Z" fill="white" stroke="#263238" stroke-linecap="round" stroke-linejoin="round"/>
<path d="M1209.86 181.48V171.1C1209.86 167.095 1208.3 163.254 1205.53 160.423C1202.75 157.591 1198.98 156 1195.06 156H1116.4C1112.47 156 1108.7 157.591 1105.93 160.423C1103.15 163.254 1101.59 167.095 1101.59 171.1V181.48H1209.86Z" fill="#EB657F" stroke="#263238" stroke-linecap="round" stroke-linejoin="round"/>
<path d="M1101.59 325.88V340.52C1101.59 344.525 1103.15 348.366 1105.93 351.197C1108.7 354.029 1112.47 355.62 1116.4 355.62H1195.06C1198.98 355.62 1202.75 354.029 1205.53 351.197C1208.3 348.366 1209.86 344.525 1209.86 340.52V325.88H1101.59Z" fill="#EB657F" stroke="#263238" stroke-linecap="round" stroke-linejoin="round"/>
<path d="M931.317 114.284C920.434 114.243 909.746 117.237 900.411 122.944C896.558 125.49 892.858 128.268 889.33 131.264C888.421 132.124 887.31 132.73 886.104 133.024C884.899 133.318 883.639 133.291 882.447 132.944C881.534 132.661 880.697 132.169 879.999 131.506C879.301 130.843 878.76 130.026 878.418 129.118C878.075 128.21 877.941 127.234 878.024 126.265C878.107 125.295 878.406 124.358 878.897 123.524C879.657 122.346 880.582 121.288 881.643 120.384C893.272 109.631 907.987 102.983 923.61 101.424C945.535 99.1643 964.617 105.984 981.149 120.624C982.049 121.265 982.807 122.09 983.375 123.048C983.942 124.006 984.306 125.074 984.444 126.184C984.594 127.452 984.375 128.737 983.815 129.879C983.256 131.021 982.38 131.97 981.296 132.609C980.212 133.248 978.968 133.549 977.718 133.473C976.468 133.398 975.268 132.949 974.266 132.184C972.971 131.264 971.853 130.184 970.618 129.084C960.052 120.006 946.776 114.858 932.965 114.484L931.317 114.284Z" fill="#263238"/>
<path d="M963.656 149.984C962.712 149.978 961.778 149.781 960.91 149.403C960.041 149.025 959.255 148.475 958.597 147.784C951.641 140.898 942.431 136.884 932.743 136.514C923.056 136.145 913.578 139.447 906.137 145.784C905.039 146.724 903.98 147.784 902.823 148.564C901.523 149.558 899.903 150.013 898.288 149.838C896.673 149.664 895.182 148.873 894.116 147.624C893.051 146.404 892.48 144.818 892.517 143.185C892.553 141.552 893.194 139.994 894.312 138.824C899.501 133.31 905.88 129.105 912.942 126.544C919.472 123.993 926.444 122.828 933.431 123.12C940.418 123.412 947.273 125.156 953.576 128.244C958.99 130.762 963.908 134.266 968.088 138.584C969.043 139.519 969.689 140.733 969.939 142.058C970.188 143.384 970.028 144.756 969.481 145.984C969.025 147.177 968.223 148.199 967.182 148.914C966.141 149.629 964.911 150.002 963.656 149.984Z" fill="#263238"/>
<path d="M931.082 145.404C935.316 145.387 939.506 146.267 943.389 147.988C947.271 149.71 950.76 152.235 953.635 155.404C954.798 156.595 955.472 158.193 955.519 159.873C955.567 161.553 954.984 163.188 953.89 164.444C952.737 165.708 951.153 166.473 949.463 166.581C947.774 166.689 946.108 166.132 944.81 165.024C942.63 163.105 940.218 161.478 937.632 160.184C930.808 157.344 924.552 158.924 919.12 163.904C918.281 164.856 917.231 165.589 916.057 166.042C914.883 166.494 913.62 166.653 912.373 166.504C911.294 166.319 910.281 165.85 909.433 165.145C908.585 164.44 907.931 163.522 907.536 162.481C907.14 161.441 907.017 160.313 907.177 159.209C907.338 158.106 907.777 157.063 908.451 156.184C911.367 152.532 915.156 149.708 919.453 147.984C923.129 146.364 927.079 145.487 931.082 145.404Z" fill="#263238"/>
<path d="M931.376 184.424C930.341 184.443 929.313 184.249 928.353 183.854C927.392 183.459 926.52 182.87 925.788 182.123C925.056 181.377 924.479 180.487 924.091 179.508C923.704 178.529 923.513 177.48 923.532 176.424C923.532 174.323 924.342 172.306 925.788 170.809C927.234 169.313 929.199 168.456 931.259 168.424C933.339 168.398 935.345 169.215 936.834 170.697C938.324 172.178 939.175 174.203 939.201 176.324C939.227 178.446 938.426 180.491 936.973 182.01C935.52 183.53 933.535 184.398 931.455 184.424H931.376Z" fill="#263238"/>
<path d="M1378.98 564.814H1265.58C1258.38 564.814 1252.54 570.559 1252.54 577.647V607.79C1252.54 614.878 1258.38 620.623 1265.58 620.623H1378.98C1386.19 620.623 1392.03 614.878 1392.03 607.79V577.647C1392.03 570.559 1386.19 564.814 1378.98 564.814Z" fill="#263238" stroke="#263238" stroke-linecap="round" stroke-linejoin="round"/>
<path d="M1382.44 560.92H1269.04C1261.83 560.92 1255.99 566.665 1255.99 573.753V603.896C1255.99 610.984 1261.83 616.729 1269.04 616.729H1382.44C1389.64 616.729 1395.48 610.984 1395.48 603.896V573.753C1395.48 566.665 1389.64 560.92 1382.44 560.92Z" fill="white" stroke="#263238" stroke-linecap="round" stroke-linejoin="round"/>
<path d="M1291 580.302C1291 582.829 1290.24 585.3 1288.82 587.402C1287.39 589.503 1285.36 591.141 1282.99 592.109C1280.61 593.076 1278 593.329 1275.48 592.836C1272.96 592.343 1270.65 591.126 1268.83 589.338C1267.01 587.551 1265.78 585.274 1265.27 582.795C1264.77 580.316 1265.03 577.746 1266.01 575.411C1267 573.076 1268.66 571.08 1270.8 569.676C1272.93 568.272 1275.45 567.522 1278.01 567.522C1279.72 567.52 1281.41 567.849 1282.99 568.49C1284.57 569.132 1286 570.073 1287.2 571.26C1288.41 572.447 1289.37 573.857 1290.02 575.409C1290.67 576.96 1291.01 578.623 1291 580.302Z" fill="#EB657F" stroke="#263238" stroke-linecap="round" stroke-linejoin="round"/>
<path d="M1302.55 575.381H1379.9" stroke="#263238" stroke-linecap="round" stroke-linejoin="round"/>
<path d="M1302.55 588.161H1379.9" stroke="#263238" stroke-linecap="round" stroke-linejoin="round"/>
<path d="M1302.55 600.923H1379.9" stroke="#263238" stroke-linecap="round" stroke-linejoin="round"/>
<path d="M1378.98 645.191H1265.58C1258.38 645.191 1252.54 650.936 1252.54 658.024V688.167C1252.54 695.255 1258.38 701 1265.58 701H1378.98C1386.19 701 1392.03 695.255 1392.03 688.167V658.024C1392.03 650.936 1386.19 645.191 1378.98 645.191Z" fill="#263238" stroke="#263238" stroke-linecap="round" stroke-linejoin="round"/>
<path d="M1382.44 641.315H1269.04C1261.83 641.315 1255.99 647.06 1255.99 654.147V684.291C1255.99 691.378 1261.83 697.124 1269.04 697.124H1382.44C1389.64 697.124 1395.48 691.378 1395.48 684.291V654.147C1395.48 647.06 1389.64 641.315 1382.44 641.315Z" fill="white" stroke="#263238" stroke-linecap="round" stroke-linejoin="round"/>
<path d="M1278.09 673.441C1285.25 673.441 1291.06 667.727 1291.06 660.679C1291.06 653.631 1285.25 647.917 1278.09 647.917C1270.92 647.917 1265.11 653.631 1265.11 660.679C1265.11 667.727 1270.92 673.441 1278.09 673.441Z" fill="#EB657F" stroke="#263238" stroke-linecap="round" stroke-linejoin="round"/>
<path d="M1302.55 655.776H1379.9" stroke="#263238" stroke-linecap="round" stroke-linejoin="round"/>
<path d="M1302.55 668.538H1379.9" stroke="#263238" stroke-linecap="round" stroke-linejoin="round"/>
<path d="M1302.55 681.3H1379.9" stroke="#263238" stroke-linecap="round" stroke-linejoin="round"/>
<path d="M633.414 82.3H496V171.66H633.414V82.3Z" fill="#263238" stroke="#263238" stroke-miterlimit="10"/>
<path d="M640.651 74.9H503.236V164.26H640.651V74.9Z" fill="white" stroke="#263238" stroke-linecap="round" stroke-linejoin="round"/>
<path d="M503.236 74.9L571.953 119.58L640.651 74.9" stroke="#263238" stroke-linecap="round" stroke-linejoin="round"/>
<path d="M633.414 101.6C643.866 101.6 652.339 92.9591 652.339 82.3C652.339 71.6409 643.866 63 633.414 63C622.963 63 614.49 71.6409 614.49 82.3C614.49 92.9591 622.963 101.6 633.414 101.6Z" fill="#263238" stroke="#263238" stroke-miterlimit="10"/>
<path d="M633.297 93.1C632.03 93.1893 630.767 92.8898 629.669 92.24C628.852 91.6613 628.268 90.8023 628.021 89.82C627.714 88.6327 627.569 87.4078 627.59 86.18H631.924C631.913 86.8494 631.959 87.5186 632.061 88.18C632.102 88.6035 632.273 89.0028 632.552 89.32C632.693 89.4447 632.859 89.5376 633.038 89.5927C633.217 89.6479 633.405 89.6639 633.591 89.64C633.794 89.6494 633.996 89.6 634.173 89.4973C634.35 89.3947 634.495 89.2431 634.591 89.06C634.82 88.5657 634.941 88.0265 634.944 87.48C634.944 86.8 634.944 85.98 634.944 85C634.952 84.3313 634.913 83.6629 634.827 83C634.765 82.515 634.597 82.0504 634.336 81.64C634.21 81.4672 634.043 81.3293 633.852 81.2385C633.66 81.1477 633.449 81.107 633.238 81.12C633.03 81.1171 632.825 81.1603 632.635 81.2466C632.445 81.333 632.276 81.4604 632.14 81.62C631.799 82.0667 631.582 82.5986 631.512 83.16H627.59L627.982 70.34H638.298V74.18H631.728L631.493 78.76C631.756 78.436 632.113 78.2051 632.512 78.1C633.029 77.9007 633.57 77.7729 634.12 77.72C635.105 77.5665 636.11 77.7872 636.944 78.34C637.76 78.9538 638.364 79.8149 638.67 80.8C639.073 82.0927 639.265 83.4439 639.239 84.8C639.251 85.8974 639.179 86.9941 639.023 88.08C638.916 88.9865 638.637 89.863 638.2 90.66C637.774 91.3893 637.146 91.9738 636.395 92.34C635.433 92.8315 634.373 93.0915 633.297 93.1Z" fill="#EB657F"/>
<path d="M313.324 454.76H241.94C240.578 454.757 239.23 455.029 237.971 455.558C236.713 456.088 235.569 456.865 234.605 457.846C233.642 458.827 232.877 459.992 232.356 461.274C231.834 462.557 231.566 463.932 231.566 465.32V514.98C231.566 517.786 232.659 520.477 234.604 522.461C236.55 524.445 239.188 525.56 241.94 525.56H251.745L238.194 558.22L269.199 525.56H313.265C314.626 525.56 315.975 525.286 317.232 524.754C318.49 524.222 319.632 523.443 320.594 522.46C321.556 521.477 322.318 520.311 322.837 519.027C323.356 517.744 323.622 516.368 323.62 514.98V465.32C323.625 462.528 322.544 459.848 320.613 457.868C318.683 455.889 316.061 454.771 313.324 454.76Z" fill="#263238" stroke="#263238" stroke-linecap="round" stroke-linejoin="round"/>
<path d="M320.541 452H249.157C247.796 451.997 246.449 452.269 245.191 452.798C243.934 453.328 242.791 454.106 241.829 455.087C240.867 456.068 240.104 457.233 239.585 458.516C239.066 459.798 238.799 461.173 238.802 462.56V512.22C238.799 513.608 239.066 514.982 239.585 516.264C240.104 517.547 240.867 518.712 241.829 519.693C242.791 520.674 243.934 521.452 245.191 521.982C246.449 522.511 247.796 522.783 249.157 522.78H258.962L245.47 555.46L276.494 522.78H320.541C321.902 522.783 323.251 522.511 324.509 521.982C325.768 521.452 326.912 520.675 327.875 519.694C328.839 518.713 329.603 517.548 330.125 516.266C330.647 514.983 330.915 513.608 330.915 512.22V462.56C330.915 461.172 330.647 459.797 330.125 458.514C329.603 457.232 328.839 456.067 327.875 455.086C326.912 454.105 325.768 453.328 324.509 452.798C323.251 452.269 321.902 451.997 320.541 452Z" fill="white" stroke="#263238" stroke-linecap="round" stroke-linejoin="round"/>
<path d="M306.087 487.46L303.46 490.14L285.496 508.38L265.042 487.46C263.867 486.261 262.936 484.838 262.301 483.272C261.666 481.706 261.339 480.028 261.34 478.333C261.341 476.638 261.669 474.96 262.306 473.395C262.943 471.83 263.876 470.408 265.051 469.21C267.426 466.791 270.645 465.433 274.001 465.435C275.663 465.436 277.308 465.771 278.843 466.42C280.378 467.07 281.772 468.021 282.946 469.22L285.574 471.9L288.183 469.22C289.357 468.021 290.751 467.07 292.286 466.42C293.821 465.771 295.466 465.436 297.128 465.435C298.79 465.434 300.435 465.767 301.971 466.415C303.507 467.063 304.902 468.012 306.078 469.21C307.253 470.408 308.186 471.83 308.823 473.395C309.46 474.96 309.788 476.638 309.789 478.333C309.79 480.028 309.463 481.706 308.828 483.272C308.193 484.838 307.262 486.261 306.087 487.46Z" fill="#EB657F" stroke="#263238" stroke-linecap="round" stroke-linejoin="round"/>
<path d="M207.462 242.302H193.735C182.019 242.176 170.703 237.938 161.69 230.302L160.121 228.982C160 228.882 159.905 228.753 159.843 228.607C159.782 228.46 159.756 228.301 159.768 228.142L163.436 175.802C163.447 175.607 163.515 175.42 163.63 175.263C163.745 175.107 163.902 174.988 164.083 174.922C171.025 172.299 177.615 168.791 183.694 164.482C187.263 161.662 195.461 153.782 193.735 141.282C193.107 136.542 193.421 133.522 194.715 132.022C195 131.682 195.355 131.41 195.755 131.227C196.156 131.043 196.591 130.953 197.029 130.962C198.814 130.962 201.089 132.362 203.776 135.102C209.502 140.942 209.914 147.902 209.835 153.982C209.431 160.664 207.843 167.217 205.148 173.322C211.718 173.562 234.702 174.542 238.095 176.022C240.733 177.645 242.683 180.212 243.566 183.222C244.761 185.935 244.853 189.02 243.821 191.802C242.793 194.002 241.315 195.952 239.487 197.522C240.144 198.87 240.498 200.351 240.522 201.856C240.545 203.361 240.239 204.853 239.625 206.222C238.593 208.368 237.316 210.382 235.82 212.222C236.678 213.474 237.278 214.891 237.585 216.386C237.891 217.881 237.898 219.424 237.605 220.922C236.536 224.385 234.422 227.416 231.564 229.582C231.861 230.73 231.884 231.933 231.631 233.092C231.379 234.25 230.858 235.33 230.113 236.242C229.016 237.835 227.599 239.172 225.955 240.161C224.312 241.151 222.48 241.772 220.582 241.982C216.218 242.33 211.838 242.437 207.462 242.302Z" fill="white"/>
<path d="M197.069 131.982C198.677 131.982 200.853 133.502 203.128 135.822C208.364 141.162 209.012 147.382 208.894 153.982C208.776 163.482 203.658 174.282 203.658 174.282C203.658 174.282 234.035 175.362 237.703 176.962C241.37 178.562 245.017 187.102 242.939 191.322C241.893 193.663 240.272 195.689 238.232 197.202C238.972 198.483 239.404 199.925 239.493 201.41C239.581 202.894 239.324 204.379 238.742 205.742C237.663 208.072 236.256 210.228 234.565 212.142C235.491 213.334 236.156 214.715 236.515 216.192C236.873 217.669 236.917 219.207 236.644 220.702C235.604 225.502 230.368 229.242 230.368 229.242C230.368 229.242 231.937 231.922 229.309 235.662C228.288 237.152 226.964 238.4 225.428 239.321C223.891 240.243 222.179 240.816 220.406 241.002C219.366 241.182 214.071 241.242 207.482 241.242H193.754C182.291 241.135 171.212 237.011 162.377 229.562L160.808 228.242L164.475 175.882C171.509 173.234 178.184 169.686 184.341 165.322C189.538 161.322 196.323 152.942 194.754 141.182C193.852 134.542 194.97 132.002 197.069 132.002M197.069 130.002C196.498 129.983 195.931 130.092 195.406 130.32C194.881 130.548 194.411 130.89 194.029 131.322C192.519 133.082 192.068 136.282 192.833 141.322C194.421 153.322 186.596 160.882 183.145 163.582C177.122 167.843 170.591 171.305 163.71 173.882C163.356 174.016 163.047 174.252 162.821 174.56C162.595 174.869 162.461 175.238 162.435 175.622L158.729 228.102C158.707 228.419 158.76 228.737 158.883 229.029C159.006 229.321 159.195 229.579 159.435 229.782L161.004 231.102C170.196 238.881 181.732 243.196 193.676 243.322H207.404C211.824 243.473 216.25 243.38 220.661 243.042C222.687 242.815 224.643 242.149 226.398 241.091C228.153 240.032 229.667 238.604 230.839 236.902C231.577 235.939 232.114 234.831 232.414 233.647C232.714 232.464 232.772 231.23 232.584 230.022C235.391 227.772 237.446 224.691 238.467 221.202C239.076 218.162 238.522 214.999 236.918 212.362C238.269 210.609 239.438 208.719 240.409 206.722C241.048 205.341 241.392 203.837 241.419 202.309C241.446 200.782 241.155 199.266 240.566 197.862C242.235 196.281 243.599 194.395 244.586 192.302C245.158 190.801 245.433 189.2 245.396 187.59C245.359 185.98 245.01 184.394 244.37 182.922C243.311 179.962 241.174 176.362 238.369 175.142C235.055 173.682 214.973 172.742 206.501 172.422C208.959 166.588 210.4 160.361 210.757 154.022C210.757 147.742 210.404 140.542 204.423 134.422C201.501 131.442 199.049 130.002 196.97 130.002H197.069Z" fill="#263238"/>
<path d="M164.887 172.142H121.409V238.382H164.887V172.142Z" fill="#263238" stroke="#263238" stroke-linecap="round" stroke-linejoin="round"/>
<path d="M98.6801 356.742L95.562 359.942L74.2644 381.662L49.8291 356.742C48.3969 355.324 47.2556 353.629 46.4714 351.757C45.6872 349.884 45.2759 347.871 45.2613 345.836C45.2467 343.8 45.6292 341.781 46.3864 339.897C47.1437 338.013 48.2606 336.302 49.6723 334.862C51.0839 333.422 52.7622 332.283 54.6094 331.511C56.4566 330.739 58.4359 330.349 60.4323 330.364C62.4286 330.379 64.4021 330.798 66.2381 331.598C68.074 332.398 69.7357 333.561 71.1266 335.022L74.2644 338.222L77.3629 335.022C80.1872 332.139 84.0187 330.518 88.0146 330.517C92.0105 330.515 95.8435 332.132 98.6703 335.012C101.497 337.892 103.086 341.8 103.088 345.875C103.09 349.95 101.504 353.859 98.6801 356.742Z" fill="#263238" stroke="#263238" stroke-linecap="round" stroke-linejoin="round"/>
<path d="M332.875 308.562L328.443 313.082L298.203 343.902L263.55 308.562C259.708 304.441 257.598 298.952 257.668 293.266C257.739 287.58 259.985 282.148 263.927 278.127C267.87 274.106 273.197 271.815 278.772 271.744C284.347 271.672 289.729 273.824 293.771 277.742L298.203 282.262L302.635 277.742C306.642 273.652 312.079 271.354 317.748 271.352C323.417 271.35 328.855 273.645 332.865 277.732C336.875 281.819 339.129 287.363 339.131 293.145C339.133 298.927 336.882 304.472 332.875 308.562Z" fill="#EB657F" stroke="#263238" stroke-linecap="round" stroke-linejoin="round"/>
<path d="M1241.05 543.36C1247.95 537.7 1253.88 530.891 1258.56 523.22C1265.31 511.5 1271.05 498.5 1268.8 498.24C1266.54 497.98 1216.32 492.38 1197.06 492.62C1177.8 492.86 1180.31 491.86 1180.31 491.86V501.1C1180.31 501.1 1204.81 507.98 1211.06 509.26C1217.32 510.54 1235.81 515.1 1235.81 515.1L1229.56 520.2L1241.05 543.36Z" fill="white" stroke="#263238" stroke-linecap="round" stroke-linejoin="round"/>
<path d="M1235.81 515.1C1240.93 514.035 1245.94 512.502 1250.79 510.52Z" fill="white"/>
<path d="M1235.81 515.1C1240.93 514.035 1245.94 512.502 1250.79 510.52" stroke="#263238" stroke-linecap="round" stroke-linejoin="round"/>
<path d="M1125.81 469.82C1125.81 469.82 1107.57 478.1 1104.24 493.58C1100.91 509.06 1095.79 533.58 1088.36 546.62C1080.92 559.66 1054.59 562.82 1053.59 578.62C1052.59 594.42 1080.28 605.52 1082.67 611.1C1085.06 616.68 1064.08 625.56 1064.76 641.74C1065.45 657.92 1078.61 662.4 1086.34 661.74C1094.06 661.08 1109.87 653.48 1112.01 658.64C1114.14 663.8 1121.46 678.64 1140.03 669.66C1158.6 660.68 1158.94 646.94 1167.72 650.04C1176.51 653.14 1199.1 651.4 1196.77 622.48C1194.43 593.56 1202.18 570.12 1197.45 550.84C1192.73 531.56 1185.29 531.9 1181.57 520.84C1177.84 509.78 1188.33 503.62 1182.25 485.36C1176.17 467.1 1155.23 464.36 1147.8 464.7C1140.23 465.089 1132.79 466.822 1125.81 469.82Z" fill="#263238" stroke="#263238" stroke-linecap="round" stroke-linejoin="round"/>
<path d="M1194.69 794.72C1194.69 794.72 1195.18 824.42 1191.78 844.22C1188.39 864.02 1184.51 865.36 1185 890.6C1185.49 915.84 1178.76 975.22 1178.76 975.22C1178.76 975.22 1164.21 993.04 1166.62 996.02C1169.04 999 1179.25 1002.02 1183.61 1007.88C1187.96 1013.74 1191.45 1018.78 1204.47 1022.24C1217.49 1025.7 1219.04 1022.74 1216.12 1019.26C1213.2 1015.78 1201.57 993.04 1198.65 984.62C1196.76 979.853 1195.44 974.87 1194.73 969.78C1194.73 968.3 1226.75 859.06 1230.16 845.78C1233.58 832.5 1236.05 795.78 1236.05 795.78L1194.69 794.72Z" fill="white" stroke="#263238" stroke-linecap="round" stroke-linejoin="round"/>
<path d="M1208.89 1006.86L1201.04 1008.38C1193.15 1002.99 1186.52 995.895 1181.63 987.6C1179.37 983.9 1177.7 980.86 1176.23 978.38C1172.19 983.64 1164.8 993.82 1166.58 996.02C1169.02 998.98 1179.21 1002.02 1183.57 1007.88C1187.92 1013.74 1191.41 1018.78 1204.43 1022.24C1217.46 1025.7 1219 1022.74 1216.08 1019.26C1213.4 1015.31 1210.99 1011.16 1208.89 1006.86Z" fill="#263238" stroke="#263238" stroke-linecap="round" stroke-linejoin="round"/>
<path d="M1151.03 811.1V828.42C1151.03 828.42 1129.19 843.76 1121.42 859.1C1113.65 874.44 1064.55 952.62 1062.7 955.1C1060.86 957.58 1033.64 991.78 1038.94 1004.54C1044.23 1017.3 1052.53 1009.98 1058.35 1002.54C1064.18 995.1 1073.86 959.98 1073.86 959.98C1073.86 959.98 1158.31 869.42 1171.41 857.56C1184.51 845.7 1192.27 837.26 1194.69 828.86C1196.2 823.503 1197.34 818.042 1198.1 812.52C1198.1 812.52 1162.66 815.1 1151.03 811.1Z" fill="white" stroke="#263238" stroke-linecap="round" stroke-linejoin="round"/>
<path d="M1045.25 990.68L1052.74 968.68C1044.9 980.42 1035.66 996.68 1039.01 1004.5C1044.35 1017.38 1052.61 1009.94 1058.43 1002.5C1061.04 999.18 1064.43 990.28 1067.37 981.48L1057.94 996.08L1045.25 990.68Z" fill="#263238" stroke="#263238" stroke-linecap="round" stroke-linejoin="round"/>
<path d="M1155.56 640.48L1157.15 655.82C1157.15 655.82 1140.4 677.16 1136.91 713.44C1133.42 749.72 1134.48 810.56 1134.48 810.56C1134.48 810.56 1142.5 817.32 1167.27 819.46C1181.73 820.791 1196.3 819.948 1210.51 816.96L1214 816.26L1214.71 807.72C1221.93 808.264 1229.19 807.786 1236.28 806.3C1244.42 804.731 1252.29 801.976 1259.66 798.12C1259.66 798.12 1258.27 739.42 1248.5 705.98C1242.13 684.651 1234.19 663.839 1224.77 643.72L1220.59 624.88C1220.59 624.88 1179.1 638.66 1155.56 640.48Z" fill="#EB657F" stroke="#263238" stroke-linecap="round" stroke-linejoin="round"/>
<path d="M1210.14 648.7C1210.14 648.7 1213.63 672.54 1214.69 676.46C1215.75 680.38 1210.14 685.1 1210.14 685.1C1210.14 685.1 1217.83 755.52 1214.34 799.64" stroke="#263238" stroke-linecap="round" stroke-linejoin="round"/>
<path d="M1202.85 641.6L1207.38 665.78" stroke="#263238" stroke-linecap="round" stroke-linejoin="round"/>
<path d="M1220.99 649.1C1220.99 649.1 1226.55 662.98 1230.79 687.52" stroke="#263238" stroke-linecap="round" stroke-linejoin="round"/>
<path d="M1179.82 666.14C1179.82 666.14 1172.15 680.72 1173.94 705.26" stroke="#263238" stroke-linecap="round" stroke-linejoin="round"/>
<path d="M1183.31 668.28C1183.31 668.28 1181.57 696.38 1180.86 724.48" stroke="#263238" stroke-linecap="round" stroke-linejoin="round"/>
<path d="M1174.59 643.38L1176.33 655.82" stroke="#263238" stroke-linecap="round" stroke-linejoin="round"/>
<path d="M1178.78 643.02L1180.51 654.4" stroke="#263238" stroke-linecap="round" stroke-linejoin="round"/>
<path d="M1213.3 632.34L1215.04 642.66" stroke="#263238" stroke-linecap="round" stroke-linejoin="round"/>
<path d="M1217.85 630.22L1219.93 641.24" stroke="#263238" stroke-linecap="round" stroke-linejoin="round"/>
<path d="M1182.06 553.8C1182.06 553.8 1185.98 550.76 1191.86 545.9C1197.75 541.04 1236.58 514.16 1236.58 514.16L1256.05 557.7L1217.87 577.52C1217.87 577.52 1227.87 617.52 1226.87 622.9C1225.87 628.28 1218.12 630.28 1200.63 636.14C1184.79 641.197 1168.39 644.207 1151.82 645.1C1143.58 645.1 1145.56 644.6 1141.07 634.66C1136.58 624.72 1118.83 584.44 1124.58 568.38C1130.32 552.32 1144.93 555.7 1149.07 556.9C1153.21 558.1 1161.11 560.7 1161.11 560.7L1182.06 553.8Z" fill="white" stroke="#263238" stroke-linecap="round" stroke-linejoin="round"/>
<path d="M1142.44 541.6C1142.44 541.6 1149.68 557.28 1152.78 561.6C1155.88 565.92 1154.74 569.32 1165.98 568.88C1177.21 568.44 1184.1 561.04 1182.55 556.52C1179.74 547.16 1177.51 537.627 1175.88 527.98C1175.88 527.98 1174.78 537.72 1167.23 542.92C1159.68 548.12 1142.44 541.6 1142.44 541.6Z" fill="white" stroke="#263238" stroke-linecap="round" stroke-linejoin="round"/>
<path d="M1145.84 485.34C1145.84 485.34 1146.33 492.04 1139.03 509.14C1131.74 526.24 1127.62 527.72 1127.62 527.72C1127.62 527.72 1136.83 544.08 1145.84 548.28C1154.84 552.48 1168.43 553.98 1173.55 548.54C1178.66 543.1 1181.8 530.94 1181.8 525.24C1181.8 519.54 1175.72 497.24 1175.72 497.24C1175.72 497.24 1157.99 497.48 1145.84 485.34Z" fill="white" stroke="#263238" stroke-linecap="round" stroke-linejoin="round"/>
<path d="M1141.78 519.7C1141.78 519.7 1147.13 515.34 1151.58 516.7" stroke="#263238" stroke-linecap="round" stroke-linejoin="round"/>
<path d="M1164.23 519.7C1164.23 519.7 1163.98 522.7 1161.82 523.52" stroke="#263238" stroke-linecap="round" stroke-linejoin="round"/>
<path d="M1165.31 531.42C1165.31 531.42 1157.47 534.42 1151.13 530.88C1151.13 530.88 1153.09 540.42 1157.82 539.32C1162.54 538.22 1165.31 531.42 1165.31 531.42Z" stroke="#263238" stroke-linecap="round" stroke-linejoin="round"/>
<path d="M1139.03 509.1C1140.2 507.841 1141.63 506.862 1143.21 506.236C1144.79 505.61 1146.49 505.351 1148.19 505.48" stroke="#263238" stroke-linecap="round" stroke-linejoin="round"/>
<path d="M1159.96 502.24C1159.96 502.24 1164.23 494.6 1171.45 499.78" stroke="#263238" stroke-linecap="round" stroke-linejoin="round"/>
<path d="M1169.33 508.16C1169.88 509.62 1169.6 511.1 1168.72 511.46C1167.84 511.82 1166.64 510.9 1166.09 509.46C1165.54 508.02 1165.8 506.5 1166.7 506.16C1167.6 505.82 1168.78 506.68 1169.33 508.16Z" fill="#263238"/>
<path d="M1127.62 527.72C1127.62 527.72 1119.77 525.96 1122.26 532.78C1124.75 539.6 1135.89 540.42 1135.89 540.42L1127.62 527.72Z" fill="white" stroke="#263238" stroke-linecap="round" stroke-linejoin="round"/>
<path d="M1178.14 504.42C1178.14 504.42 1181.08 500.6 1181.61 506.06C1181.89 509.714 1181.62 513.39 1180.8 516.96L1178.14 504.42Z" stroke="#263238" stroke-linecap="round" stroke-linejoin="round"/>
<path d="M1125.07 583.38L1155.56 640.48L1183.57 596.12L1149.82 561.2" fill="white"/>
<path d="M1125.07 583.38L1155.56 640.48L1183.57 596.12L1149.82 561.2" stroke="#263238" stroke-linecap="round" stroke-linejoin="round"/>
<path d="M1219.46 472.911L1198.06 481.939C1196.51 482.593 1195.77 484.406 1196.41 485.988L1214.44 530.436C1215.08 532.019 1216.86 532.771 1218.41 532.116L1239.81 523.089C1241.36 522.434 1242.1 520.621 1241.46 519.039L1223.43 474.591C1222.79 473.009 1221.01 472.257 1219.46 472.911Z" fill="#EB657F" stroke="#263238" stroke-linecap="round" stroke-linejoin="round"/>
<path d="M1204.56 482.455L1199.92 484.411L1204.24 495.057L1208.88 493.1L1204.56 482.455Z" fill="#263238"/>
<path d="M1183.57 596.12C1183.57 596.12 1206.81 562.48 1208.81 556.12C1210.81 549.76 1206.06 524.52 1205.32 521.7C1204.57 518.88 1216.55 509.22 1219.81 507.18C1223.06 505.14 1224.06 506.16 1223.06 507.94C1222.06 509.72 1214.81 515.94 1213.81 517.64C1213.09 519.422 1212.66 521.315 1212.55 523.24C1212.55 523.24 1218.32 516.36 1220.55 515.08C1222.79 513.8 1229.81 509.72 1230.56 510.74L1230.81 512.74C1230.81 512.74 1233.81 512.5 1233.56 514.54C1233.3 516.58 1229.63 520.14 1229.63 520.14L1227.14 523.46C1227.14 523.46 1232.89 519.12 1233.38 520.9C1233.87 522.68 1226.89 528.9 1225.89 530.34C1225.15 531.598 1224.57 532.941 1224.14 534.34C1224.82 539.082 1224.73 543.906 1223.89 548.62C1222.78 552.134 1220.35 555.06 1217.14 556.76L1199.65 608C1199.65 608 1188.65 630 1186.39 633.24C1184.14 636.48 1181.14 635.24 1179.39 634.26C1177.65 633.28 1166.15 623.56 1166.15 623.56L1183.57 596.12Z" fill="white" stroke="#263238" stroke-linecap="round" stroke-linejoin="round"/>
<path d="M212.609 525.481C212.609 525.481 222.199 520.421 218.649 505.941C215.099 491.461 200.175 478.421 188.115 474.441C176.054 470.461 164.327 470.441 149.403 481.321C134.479 492.201 123.143 528.381 129.537 543.961C133.145 553.062 139.168 560.957 146.932 566.761C146.932 566.761 137.342 569.301 138.754 578.761C140.166 588.221 149.05 583.821 158.639 579.481C168.229 575.141 167.523 560.281 166.091 550.141C164.66 540.001 163.974 529.881 163.974 529.881C163.974 529.881 171.818 523.721 178.172 518.281C181.848 515.289 184.766 511.441 186.683 507.061L203.372 524.801C203.372 524.801 203.725 529.841 212.609 525.481Z" fill="#263238" stroke="#263238" stroke-linecap="round" stroke-linejoin="round"/>
<path d="M152.05 922.241L161.738 984.801C161.738 984.801 146.049 1001.74 146.971 1014.9C147.892 1028.06 159.62 1023.28 162.856 1018.58C166.091 1013.88 178.544 998.581 176.485 984.321C175.642 978.581 176.956 919.881 176.956 919.881L152.05 922.241Z" fill="white" stroke="#263238" stroke-linecap="round" stroke-linejoin="round"/>
<path d="M173.956 993.601C171.279 999.303 167.731 1004.53 163.444 1009.1L150.873 1007.32L152.05 1002.24C152.705 999.404 153.59 996.628 154.697 993.941C150.658 999.941 146.48 1007.94 146.971 1014.96C147.892 1028.14 159.62 1023.34 162.856 1018.64C165.856 1014.26 176.858 1000.82 176.721 987.481C175.917 989.181 175.015 991.181 173.956 993.601Z" fill="#EB657F" stroke="#263238" stroke-linecap="round" stroke-linejoin="round"/>
<path d="M237.358 923.881L267.735 986.761C267.735 986.761 270.657 1004.04 275.913 1014.46C281.169 1024.88 294.328 1027.58 295.524 1018.34C296.72 1009.1 292.896 1001.06 286.758 993.301C280.62 985.541 277.992 981.981 277.992 981.981L265.147 921.201L237.358 923.881Z" fill="white" stroke="#263238" stroke-linecap="round" stroke-linejoin="round"/>
<path d="M295.544 1018.34C296.662 1009.58 293.308 1001.92 287.699 994.541L287.915 995.401L289.876 1007.02C289.876 1007.02 280.816 1011.78 277.6 1009.4C275.05 1007.5 270.991 998.781 269.461 995.401C270.909 1002 273.052 1008.41 275.854 1014.54C281.169 1024.88 294.328 1027.58 295.544 1018.34Z" fill="#EB657F" stroke="#263238" stroke-linecap="round" stroke-linejoin="round"/>
<path d="M148.461 667.401C148.461 667.401 130.811 711.981 128.144 746.781C125.477 781.581 140.146 851.361 140.146 851.361C140.146 851.361 140.146 891.661 139.734 912.821C139.322 933.981 137.773 931.701 137.773 931.701L180.211 931.241C180.211 931.241 186.095 870.181 184.349 846.201C182.604 822.221 182.506 748.821 182.506 748.821H187.566C187.566 748.821 210.628 857.481 211.55 863.121C212.472 868.761 226.788 928.401 226.788 928.401L275.678 926.061C273.853 911.862 270.35 897.941 265.245 884.601C256.479 861.081 254.459 842.421 253.478 839.601C252.498 836.781 251.203 794.241 241.515 748.241C235.36 719.638 226.023 691.845 213.687 665.401C192.292 670.486 170.117 671.166 148.461 667.401Z" fill="white" stroke="#263238" stroke-linecap="round" stroke-linejoin="round"/>
<path d="M253.517 839.601C252.596 836.781 251.203 794.301 241.515 748.201C237.484 728.814 231.265 709.969 222.983 692.041C192.213 705.101 157.443 700.041 140.068 696.161C135.106 709.601 129.458 728.301 127.987 746.781C125.222 781.601 139.989 851.361 139.989 851.361C139.989 851.361 139.989 891.661 139.577 912.821C139.166 933.981 137.616 931.701 137.616 931.701L180.055 931.241C180.055 931.241 185.938 870.181 184.192 846.201C182.447 822.221 182.349 748.821 182.349 748.821H187.409C187.409 748.821 210.471 857.481 211.393 863.121C212.315 868.761 226.631 928.401 226.631 928.401L275.521 926.061C273.696 911.862 270.193 897.941 265.088 884.601C256.459 861.081 254.361 842.421 253.517 839.601Z" fill="#263238" stroke="#263238" stroke-linecap="round" stroke-linejoin="round"/>
<path d="M129.89 770.921L157.561 771.401L158.953 783.621L132.655 783.161" stroke="white" stroke-miterlimit="10"/>
<path d="M158.482 788.341C158.482 788.341 159.875 821.741 159.424 825.501C158.973 829.261 140.97 830.201 140.97 830.201" stroke="white" stroke-miterlimit="10"/>
<path d="M245.085 770.921L217.512 771.401L218.786 783.621L244.987 783.161" stroke="white" stroke-miterlimit="10"/>
<path d="M220.277 788.341C220.277 788.341 226.16 821.741 227.435 825.501C228.709 829.261 246.889 830.201 246.889 830.201" stroke="white" stroke-miterlimit="10"/>
<path d="M180.643 703.521L182.016 713.861L187.546 714.341L189.389 736.441" stroke="white" stroke-miterlimit="10"/>
<path d="M164.15 569.581C159.502 569.547 154.875 570.221 150.422 571.581C144.892 573.581 134.067 576.321 129.752 583.761C122.477 596.321 139.146 636.841 141.793 646.661C144.441 656.481 148.461 667.401 148.461 667.401C148.461 667.401 170.994 674.161 189.232 671.121C207.471 668.081 213.785 665.361 213.785 665.361C213.785 665.361 217.512 651.361 221.493 625.801C223.552 612.461 232.494 597.301 231.122 586.881C228.749 568.701 197.783 570.641 194.214 570.981C191.331 571.241 172.779 570.121 164.15 569.581Z" fill="#EB657F" stroke="#263238" stroke-linecap="round" stroke-linejoin="round"/>
<path d="M165.601 552.041C165.278 556.149 164.622 560.223 163.64 564.221C161.993 570.981 159.718 573.341 159.718 573.341C159.718 573.341 163.954 581.841 175.975 582.821C192.547 584.161 198.861 571.321 198.861 571.321C195.329 565.75 193.268 559.343 192.88 552.721L165.601 552.041Z" fill="white" stroke="#263238" stroke-linecap="round" stroke-linejoin="round"/>
<path d="M184.781 494.561C184.781 494.561 177.486 507.581 170.563 514.261C164.889 519.225 158.647 523.469 151.972 526.901C151.972 526.901 154.894 544.001 159.993 553.301C165.091 562.601 175.309 572.621 187.683 568.161C200.058 563.701 206.275 540.281 206.275 534.341C206.275 528.401 205.549 519.841 205.549 519.841C205.549 519.841 194.253 513.521 184.781 494.561Z" fill="white" stroke="#263238" stroke-linecap="round" stroke-linejoin="round"/>
<path d="M151.599 529.881C151.599 529.881 145.402 526.541 144.676 533.881C143.951 541.221 157.443 546.521 157.443 546.521L151.599 529.881Z" fill="white" stroke="#263238" stroke-linecap="round" stroke-linejoin="round"/>
<path d="M206.647 526.241C206.647 526.241 211.746 523.261 211.393 530.701C211.277 532.871 210.654 534.982 209.576 536.857C208.498 538.732 206.996 540.318 205.196 541.481L206.647 526.241Z" fill="white" stroke="#263238" stroke-linecap="round" stroke-linejoin="round"/>
<path d="M173.838 531.001C173.838 532.841 172.857 534.341 171.661 534.341C170.465 534.341 169.465 532.841 169.465 531.001C169.465 529.161 170.445 527.641 171.661 527.641C172.877 527.641 173.838 529.141 173.838 531.001Z" fill="#263238"/>
<path d="M193.566 531.001C193.566 532.841 192.586 534.341 191.37 534.341C190.154 534.341 189.193 532.841 189.193 531.001C189.193 529.161 190.174 527.641 191.37 527.641C192.566 527.641 193.566 529.141 193.566 531.001Z" fill="#263238"/>
<path d="M177.878 541.401C177.878 541.401 181.153 544.741 186.252 541.021" stroke="#263238" stroke-miterlimit="10"/>
<path d="M164.366 523.561C164.366 523.561 167.288 519.841 174.171 520.221" stroke="#263238" stroke-miterlimit="10"/>
<path d="M187.683 520.241C187.683 520.241 194.253 519.121 197.901 523.201" stroke="#263238" stroke-miterlimit="10"/>
<path d="M189.154 547.341C180.408 552.181 174.936 547.341 174.936 547.341C174.936 547.341 175.662 556.641 180.819 557.021C185.977 557.401 189.154 547.341 189.154 547.341Z" stroke="#263238" stroke-miterlimit="10"/>
<path d="M148.03 572.341C148.03 572.341 132.008 571.321 123.379 582.481C114.75 593.641 106.984 671.941 111.965 674.981C116.946 678.021 126.909 673.901 128.889 671.521C130.87 669.141 144.264 610.661 144.264 610.661" fill="#EB657F"/>
<path d="M148.03 572.341C148.03 572.341 132.008 571.321 123.379 582.481C114.75 593.641 106.984 671.941 111.965 674.981C116.946 678.021 126.909 673.901 128.889 671.521C130.87 669.141 144.264 610.661 144.264 610.661" stroke="#263238" stroke-linecap="round" stroke-linejoin="round"/>
<path d="M114.789 618.641C110.651 641.141 106.043 672.841 108.906 674.641C113.887 677.681 125.83 675.661 127.811 673.281C129.144 671.701 137.616 640.761 141.029 624.481L114.789 618.641Z" fill="white" stroke="#263238" stroke-linecap="round" stroke-linejoin="round"/>
<path d="M210.844 572.501C214.769 571.906 218.776 572.262 222.541 573.54C226.306 574.819 229.723 576.984 232.514 579.861C236.064 583.381 239.025 598.561 243.202 612.041C250.831 636.481 254.772 663.841 251.85 666.201C247.301 669.881 242.476 674.201 240.221 672.201C237.966 670.201 211.726 608.761 211.726 608.761" fill="#EB657F"/>
<path d="M210.844 572.501C214.769 571.906 218.776 572.262 222.541 573.54C226.306 574.819 229.723 576.984 232.514 579.861C236.064 583.381 239.025 598.561 243.202 612.041C250.831 636.481 254.772 663.841 251.85 666.201C247.301 669.881 242.476 674.201 240.221 672.201C237.966 670.201 211.726 608.761 211.726 608.761" stroke="#263238" stroke-linecap="round" stroke-linejoin="round"/>
<path d="M243.202 612.041C250.144 633.801 260.224 666.221 257.538 668.381C252.988 672.061 242.476 674.221 240.221 672.121C238.691 670.721 224.356 636.881 217.512 621.661L243.202 612.041Z" fill="white" stroke="#263238" stroke-linecap="round" stroke-linejoin="round"/>
<path d="M232.337 628.681C232.337 628.681 227.866 616.421 226.219 614.961C224.571 613.501 209.706 602.961 209.706 602.961L209.51 606.501L217.453 612.501L209.608 611.261L209.824 614.581L219.198 618.581L209.393 617.961V621.481L218.159 622.941L209.393 625.441L210.295 627.541H218.571C218.571 627.541 220.806 634.821 223.669 637.101C225.921 638.535 228.549 639.233 231.2 639.101C231.2 639.101 234.181 666.321 240.103 672.141C246.026 677.961 260.283 678.941 260.695 669.581C261.107 660.221 259.459 658.001 253.145 652.401C246.83 646.801 232.337 628.681 232.337 628.681Z" fill="white" stroke="#263238" stroke-linecap="round" stroke-linejoin="round"/>
<path d="M209.765 642.621H188.86L186.899 603.541C186.872 602.982 187.063 602.435 187.431 602.019C187.798 601.603 188.312 601.352 188.86 601.321L208.039 600.121C208.324 600.105 208.608 600.148 208.876 600.248C209.143 600.349 209.387 600.504 209.593 600.705C209.799 600.905 209.962 601.147 210.073 601.415C210.184 601.682 210.239 601.97 210.236 602.261L209.765 642.621Z" fill="#263238" stroke="#263238" stroke-linecap="round" stroke-linejoin="round"/>
<path d="M116.927 653.661L173.23 632.241C173.23 632.241 179.858 627.161 180.859 626.141C181.859 625.121 187.821 620.741 187.821 620.741V625.801L211.02 632.901C211.02 632.901 210.04 635.621 208.706 635.621C208.706 635.621 212.628 636.961 212.628 638.321C212.736 639.315 212.615 640.32 212.275 641.258C211.934 642.195 211.384 643.039 210.667 643.721C208.706 645.421 197.077 646.781 192.115 646.781C186.418 646.285 180.762 645.376 175.191 644.061C175.191 644.061 134.812 674.341 128.125 677.041C121.437 679.741 110.22 683.141 108.886 674.681C107.553 666.221 112.044 651.841 112.044 651.841" fill="white"/>
<path d="M116.927 653.661L173.23 632.241C173.23 632.241 179.858 627.161 180.859 626.141C181.859 625.121 187.821 620.741 187.821 620.741V625.801L211.02 632.901C211.02 632.901 210.04 635.621 208.706 635.621C208.706 635.621 212.628 636.961 212.628 638.321C212.736 639.315 212.615 640.32 212.275 641.258C211.934 642.195 211.384 643.039 210.667 643.721C208.706 645.421 197.077 646.781 192.115 646.781C186.418 646.285 180.762 645.376 175.191 644.061C175.191 644.061 134.812 674.341 128.125 677.041C121.437 679.741 110.22 683.141 108.886 674.681C107.553 666.221 112.044 651.841 112.044 651.841" stroke="#263238" stroke-linecap="round" stroke-linejoin="round"/>
<path d="M208.706 635.581C202.301 635.09 195.933 634.175 189.644 632.841" stroke="#263238" stroke-miterlimit="10"/>
<path d="M211.962 639.921C211.962 639.921 195.037 639.701 189.938 638.041" stroke="#263238" stroke-miterlimit="10"/>
<path d="M190.546 643.461C190.546 643.461 203.588 645.321 209.098 644.501" stroke="#263238" stroke-miterlimit="10"/>
</g>
<defs>
<clipPath id="clip0_21_69">
<rect width="1440" height="1024" fill="white"/>
</clipPath>
</defs>
</svg>
