<svg width="1366" height="768" viewBox="0 0 1366 768" fill="none" xmlns="http://www.w3.org/2000/svg">
<g clip-path="url(#clip0_21_69)">
<rect width="1366" height="768" fill="#474999"/>
<path d="M8.60897 647.79C13.1287 649.468 24.2021 649.244 24.2021 649.244C24.2021 649.244 21.8292 643.107 21.622 642.723C19.1927 638.408 11.5091 631.295 5.25683 632.014C4.22101 632.165 3.2339 632.499 2.35897 632.993C1.48405 633.487 0.740671 634.132 0.176636 634.884C-0.3874 635.637 -0.759612 636.481 -0.916068 637.364C-1.07252 638.246 -1.00976 639.146 -0.731819 640.006C0.303954 643.618 4.74836 646.351 8.60897 647.79Z" fill="#263238"/>
<path d="M11.5064 678.289C16.2145 678.88 26.0826 676.451 26.8736 676.243C28.5033 681.043 30.5039 685.747 32.8622 690.324C34.2181 692.993 35.687 695.647 37.1936 698.316C36.3085 697.197 35.4799 696.206 35.3104 696.078C31.6381 692.45 22.0148 687.319 16.1957 689.397C15.2489 689.775 14.4053 690.316 13.7185 690.986C13.0318 691.656 12.517 692.44 12.207 693.288C11.8969 694.136 11.7984 695.03 11.9177 695.912C12.0371 696.794 12.3716 697.645 12.9 698.412C15.0469 701.72 20.1693 703.351 24.3312 703.862C28.4931 704.374 37.0241 702.456 39.2652 701.928C39.849 702.935 40.4328 703.942 41.0354 704.949C43.8979 709.744 46.7792 714.539 49.4157 719.334C50.3573 721.028 51.2048 722.722 52.0711 724.417C51.2613 723.41 50.5833 722.579 50.4515 722.467C46.7792 718.854 37.1559 713.708 31.3556 715.802C30.4099 716.178 29.5667 716.718 28.8798 717.386C28.1929 718.054 27.6772 718.836 27.3655 719.682C27.0538 720.528 26.9529 721.42 27.0692 722.301C27.1855 723.183 27.5165 724.034 28.0411 724.8C30.188 728.109 35.3104 729.739 39.4723 730.267C43.6342 730.794 51.3555 729.036 54.0108 728.413C54.8206 730.171 55.6492 731.913 56.346 733.655C56.7791 734.838 57.3065 735.957 57.6831 737.187C58.0597 738.418 58.4552 739.569 58.8507 740.736C59.491 743.037 60.1878 745.387 60.7339 747.625C61.1294 749.223 61.4872 750.677 61.845 752.18C60.9411 750.486 59.0767 747.209 58.8884 746.953C55.894 742.909 47.2877 736.58 41.1861 737.907C40.184 738.158 39.2545 738.583 38.4566 739.155C37.6586 739.728 37.0097 740.435 36.551 741.231C36.0922 742.028 35.8338 742.897 35.7921 743.783C35.7503 744.669 35.9262 745.553 36.3085 746.378C37.8339 749.926 42.6173 752.196 46.6474 753.251C51.073 754.401 60.8657 753.347 62.0898 753.251C62.6925 755.744 63.2386 758.158 63.7094 760.459C64.0484 762.153 64.3685 763.784 64.6699 765.35H68.6058C68.2291 763.608 67.8148 761.786 67.3817 759.884C66.7979 757.342 66.1011 754.657 65.3666 751.892C68.3158 750.88 71.1954 749.727 73.9918 748.44C77.231 751.413 85.4983 754.833 86.5717 755.329C85.4418 757.678 84.3119 759.948 83.2196 762.089L81.5247 765.286H85.6678L86.6659 763.272C87.8147 760.891 89.0011 758.317 90.1687 755.68C91.3551 755.888 101.073 757.566 105.592 756.703C109.698 755.904 114.669 753.938 116.496 750.502C116.94 749.71 117.186 748.849 117.221 747.972C117.256 747.096 117.078 746.223 116.698 745.407C116.318 744.592 115.745 743.851 115.014 743.232C114.282 742.612 113.409 742.127 112.447 741.807C106.459 740.096 97.3814 745.866 93.9916 749.718C93.7845 749.942 91.9766 752.611 90.8655 754.306C91.3363 753.219 91.8071 752.18 92.2967 751.109C93.2384 748.887 94.18 746.666 95.0651 744.268C95.4794 743.101 95.8937 741.918 96.3268 740.736C96.76 739.553 97.0613 738.274 97.4379 737.028C98.2666 734.135 98.9069 731.162 99.4907 728.157C101.769 728.86 109.924 731.258 114.123 731.002C118.323 730.746 123.539 729.404 126.025 726.287C126.617 725.555 127.022 724.726 127.216 723.854C127.409 722.981 127.387 722.084 127.149 721.22C126.912 720.355 126.465 719.542 125.837 718.832C125.209 718.122 124.414 717.531 123.502 717.096C117.852 714.651 107.852 719.174 103.86 722.547C103.615 722.754 101.073 725.44 99.7166 726.942C100.037 725.136 100.395 723.33 100.658 721.492C101.43 716.185 102.014 710.799 102.541 705.412C102.73 703.814 102.937 702.136 103.144 700.49C103.954 700.745 113.558 703.782 118.21 703.494C122.391 703.255 127.626 701.896 130.093 698.779C130.685 698.048 131.092 697.221 131.287 696.349C131.482 695.477 131.461 694.581 131.225 693.716C130.99 692.852 130.545 692.038 129.918 691.328C129.292 690.617 128.499 690.025 127.588 689.589C121.939 687.143 111.939 691.667 107.946 695.039C107.645 695.295 103.992 699.163 103.106 700.186C103.558 696.574 104.048 692.977 104.707 689.445C105.551 684.667 106.765 679.942 108.342 675.3C108.718 675.428 118.718 678.624 123.539 678.337C127.739 678.097 132.956 676.738 135.441 673.622C136.034 672.89 136.44 672.063 136.635 671.191C136.83 670.319 136.809 669.423 136.574 668.558C136.338 667.694 135.893 666.88 135.267 666.17C134.641 665.459 133.847 664.867 132.937 664.431C127.287 661.986 117.268 666.509 113.276 669.881C112.975 670.137 109.039 674.309 108.398 675.124C108.398 674.852 108.549 674.565 108.643 674.293C110.372 669.678 112.578 665.201 115.234 660.915C116.684 658.533 118.21 656.328 119.754 654.202C121.637 654.969 129.773 658.357 134.161 658.501C138.549 658.645 143.765 657.846 146.59 654.921C147.272 654.249 147.782 653.463 148.087 652.614C148.392 651.766 148.485 650.873 148.361 649.992C148.237 649.111 147.898 648.261 147.366 647.497C146.835 646.733 146.121 646.072 145.272 645.555C140.018 642.598 129.453 646.146 125.046 649.135C124.801 649.295 122.598 651.165 120.997 652.555C121.713 651.612 122.428 650.622 123.125 649.726C125.762 646.354 128.436 643.333 130.809 640.808C132.183 639.337 133.445 638.027 134.575 636.828C136.797 636.828 145.724 636.556 149.641 635.006C153.558 633.455 157.795 630.658 158.718 627.014C158.959 626.152 158.986 625.256 158.797 624.385C158.609 623.513 158.209 622.684 157.622 621.951C157.036 621.217 156.277 620.595 155.392 620.124C154.508 619.653 153.518 619.343 152.485 619.214C146.213 618.639 138.756 625.927 136.458 630.291C136.27 630.674 133.972 636.876 134.085 636.876H134.217C133.031 638.027 131.769 639.257 130.451 640.632C128.003 643.189 125.253 646.098 122.522 649.439C119.526 653.002 116.778 656.711 114.293 660.547C111.496 664.841 109.146 669.333 107.268 673.973V674.149C107.268 672.551 107.268 668.187 107.268 667.852C106.534 663.057 101.864 654.314 95.6677 653.339C94.6324 653.208 93.5766 653.263 92.5674 653.498C91.5582 653.733 90.6179 654.145 89.8064 654.706C88.9949 655.267 88.33 655.965 87.8542 656.756C87.3783 657.547 87.1019 658.414 87.0425 659.3C86.6847 663.073 89.905 666.845 93.05 669.21C96.5905 671.895 106.402 674.501 107.193 674.708C105.456 679.411 104.085 684.206 103.088 689.061C102.485 691.923 101.995 694.831 101.525 697.74C101.525 696.382 101.525 695.167 101.525 695.007C100.79 690.212 96.1197 681.469 89.9051 680.494C88.8712 680.367 87.8173 680.423 86.8104 680.659C85.8035 680.896 84.8656 681.307 84.0562 681.868C83.2468 682.429 82.5837 683.126 82.109 683.916C81.6343 684.706 81.3583 685.571 81.2987 686.456C80.9409 690.212 84.1612 693.984 87.3062 696.366C90.4512 698.747 98.7939 701.161 101.016 701.736L100.508 705.093C99.7543 710.463 99.0387 715.818 98.1347 721.076C97.8146 722.93 97.4191 724.736 97.0425 726.542C97.0425 725.344 97.0425 724.337 96.9483 724.177C96.2327 719.382 91.5434 710.639 85.3476 709.664C84.3138 709.536 83.2599 709.592 82.253 709.829C81.2461 710.065 80.3082 710.477 79.4988 711.038C78.6894 711.598 78.0263 712.296 77.5516 713.086C77.0769 713.876 76.8009 714.741 76.7413 715.626C76.3835 719.382 79.6038 723.154 82.73 725.536C85.8561 727.917 93.4267 730.075 96.0444 730.794C95.5924 732.648 95.1404 734.486 94.5943 736.26C94.18 737.459 93.8975 738.642 93.4078 739.825C92.9182 741.007 92.5227 742.19 92.0708 743.357C91.1291 745.563 90.1875 747.848 89.1706 749.99C88.5115 751.477 87.8335 752.883 87.1555 754.306C87.4945 752.468 88.0783 748.855 88.0783 748.552C88.0102 744.351 86.6746 740.234 84.1989 736.596C84.2183 736.125 84.1804 735.654 84.0859 735.189C83.9444 734.312 83.5898 733.47 83.0445 732.715C82.4993 731.96 81.7753 731.31 80.9184 730.805C80.0615 730.3 79.0905 729.952 78.0667 729.782C77.043 729.612 75.9888 729.625 74.9711 729.819C68.8694 731.194 65.0088 740.272 64.7263 745.051C64.7263 745.323 64.9147 748.408 65.0842 750.342C64.7828 749.207 64.5004 748.12 64.1802 746.969C63.5399 744.668 62.8055 742.414 62.0522 739.969C61.6379 738.802 61.2235 737.619 60.7904 736.42C60.3573 735.221 59.8111 734.023 59.3215 732.808C58.1162 730.011 56.7415 727.23 55.2726 724.449C57.6266 723.969 65.9693 722.163 69.3214 719.973C72.6736 717.784 76.1952 714.251 76.1763 710.463C76.192 709.578 75.9907 708.699 75.5854 707.884C75.1801 707.068 74.5796 706.332 73.8218 705.724C73.0641 705.115 72.1656 704.647 71.1835 704.348C70.2013 704.05 69.1568 703.928 68.1161 703.99C61.845 704.565 56.4025 713.037 55.2537 717.72C55.2537 718.007 54.8206 721.444 54.6511 723.346C53.766 721.747 52.8809 720.005 51.9016 718.359C49.0956 713.564 46.1013 708.769 43.1069 703.974L40.4139 699.595C41.2614 699.419 51.2236 697.453 54.9901 695.023C58.3234 692.85 61.8638 689.285 61.8262 685.513C61.8444 684.627 61.6451 683.746 61.241 682.929C60.8369 682.111 60.2367 681.373 59.4787 680.763C58.7207 680.153 57.8213 679.683 56.8378 679.384C55.8544 679.084 54.8082 678.962 53.766 679.024C47.4949 679.599 42.0523 688.071 40.9224 692.754C40.8282 693.105 40.3009 698.06 40.2444 699.323C38.2671 696.126 36.3462 692.929 34.5948 689.621C32.179 685.291 30.0968 680.833 28.3613 676.275C28.7568 676.275 39.171 674.197 43.0128 671.688C46.3461 669.514 49.8865 665.966 49.8677 662.177C49.8833 661.292 49.6821 660.414 49.2768 659.598C48.8715 658.782 48.2709 658.047 47.5132 657.438C46.7554 656.829 45.857 656.361 44.8748 656.063C43.8927 655.764 42.8482 655.642 41.8075 655.704C35.5364 656.28 30.0939 664.751 28.9451 669.434C28.9451 669.802 28.3048 675.124 28.286 676.099C28.173 675.827 28.0412 675.556 27.947 675.284C26.3867 670.627 25.3216 665.861 24.7643 661.043C24.4065 658.389 24.2559 655.832 24.1617 653.339C26.0449 653.131 35.2162 652.108 38.9638 650.142C42.7115 648.176 46.4967 645.091 47.0052 641.335C47.1365 640.456 47.0511 639.563 46.7543 638.714C46.4575 637.864 45.9559 637.076 45.2812 636.4C44.6065 635.723 43.7736 635.174 42.8352 634.785C41.8968 634.396 40.8734 634.178 39.8301 634.143C33.5213 634.143 27.0242 642.038 25.2728 646.594C25.2728 646.833 24.5572 649.439 24.124 651.389C24.124 650.27 24.124 649.103 24.124 648.032C24.124 643.988 24.4254 640.28 24.7267 637.004C24.915 635.134 25.1222 633.455 25.3481 631.873C27.2314 630.818 34.4629 626.439 36.6475 623.322C38.832 620.205 40.6399 615.874 39.0015 612.357C38.6413 611.524 38.0807 610.764 37.3555 610.125C36.6303 609.486 35.7563 608.982 34.7892 608.646C33.822 608.309 32.7829 608.147 31.7378 608.169C30.6928 608.192 29.6648 608.399 28.7191 608.777C23.0694 611.238 21.657 620.797 22.5798 625.512C22.5798 625.927 24.7643 632.177 24.8773 632.129L24.9715 632.049C24.7267 633.647 24.4819 635.245 24.2559 636.956C23.8792 640.248 23.4837 643.956 23.3708 648.016C23.1843 652.393 23.3101 656.775 23.7474 661.139C24.1944 666.028 25.1523 670.874 26.6099 675.619V675.795C25.6118 674.469 22.6928 670.856 22.4291 670.601C18.6627 666.972 9.13358 661.842 3.33326 663.92C2.38749 664.296 1.54436 664.836 0.857444 665.504C0.170524 666.172 -0.34517 666.954 -0.656875 667.8C-0.968579 668.646 -1.06948 669.538 -0.953161 670.419C-0.836844 671.301 -0.505852 672.152 0.0187811 672.918C2.22215 676.147 7.34452 677.777 11.5064 678.289Z" fill="#263238"/>
<path d="M120.567 649.852C120.567 649.852 122.582 643.602 122.657 643.203C123.429 638.408 121.64 628.93 115.972 626.596C115.015 626.242 113.981 626.06 112.937 626.063C111.893 626.066 110.861 626.252 109.907 626.612C108.952 626.971 108.096 627.495 107.393 628.149C106.689 628.804 106.154 629.576 105.821 630.416C104.296 633.964 106.216 638.328 108.514 641.317C111.188 644.833 120.567 649.852 120.567 649.852Z" fill="#263238"/>
<path d="M1160.05 647.79C1164.57 649.468 1175.64 649.244 1175.64 649.244C1175.64 649.244 1173.27 643.107 1173.06 642.723C1170.63 638.408 1162.95 631.295 1156.7 632.014C1155.66 632.165 1154.67 632.499 1153.8 632.993C1152.92 633.487 1152.18 634.132 1151.62 634.884C1151.05 635.637 1150.68 636.481 1150.52 637.364C1150.37 638.246 1150.43 639.146 1150.71 640.006C1151.74 643.618 1156.19 646.351 1160.05 647.79Z" fill="#263238"/>
<path d="M1163.85 674.994C1168.56 675.585 1178.43 673.156 1179.22 672.948C1180.85 677.748 1182.85 682.452 1185.21 687.029C1186.57 689.698 1188.03 692.352 1189.54 695.021C1188.66 693.902 1187.83 692.911 1187.66 692.783C1183.89 689.155 1174.36 684.024 1168.54 686.102C1167.6 686.48 1166.75 687.021 1166.07 687.691C1165.38 688.361 1164.86 689.145 1164.55 689.993C1164.24 690.841 1164.15 691.735 1164.26 692.617C1164.38 693.499 1164.72 694.35 1165.25 695.117C1167.39 698.425 1172.52 700.056 1176.68 700.567C1180.84 701.079 1189.37 699.16 1191.61 698.633C1192.2 699.64 1192.78 700.647 1193.38 701.654C1196.25 706.449 1199.03 711.244 1201.76 716.039C1202.7 717.733 1203.55 719.427 1204.42 721.122C1203.61 720.115 1202.93 719.284 1202.8 719.172C1199.03 715.559 1189.5 710.413 1183.7 712.507C1182.76 712.883 1181.91 713.423 1181.23 714.091C1180.54 714.759 1180.02 715.541 1179.71 716.387C1179.4 717.233 1179.3 718.125 1179.42 719.006C1179.53 719.888 1179.86 720.738 1180.39 721.505C1182.54 724.814 1187.66 726.444 1191.82 726.972C1195.98 727.499 1203.7 725.741 1206.36 725.117C1207.17 726.876 1208 728.618 1208.69 730.36C1209.13 731.543 1209.65 732.662 1210.03 733.892C1210.41 735.123 1210.8 736.274 1211.2 737.441C1211.84 739.742 1212.54 742.092 1213.08 744.33C1213.48 745.928 1213.83 747.382 1214.19 748.885C1213.29 747.191 1211.42 743.914 1211.24 743.658C1208.24 739.614 1199.63 733.285 1193.53 734.612C1192.53 734.863 1191.6 735.288 1190.8 735.86C1190.01 736.433 1189.36 737.14 1188.9 737.936C1188.44 738.733 1188.18 739.602 1188.14 740.488C1188.1 741.374 1188.27 742.258 1188.66 743.083C1190.18 746.631 1194.96 748.901 1198.99 749.956C1203.42 751.106 1213.21 750.052 1214.44 749.956C1215.04 752.449 1215.59 754.863 1216.06 757.164C1216.4 758.858 1216.72 760.489 1217.02 762.055H1220.95C1220.58 760.313 1220.16 758.491 1219.73 756.589C1219.15 754.047 1218.45 751.362 1217.71 748.597C1220.66 747.585 1223.54 746.432 1226.34 745.145C1229.58 748.118 1237.85 751.538 1238.92 752.033C1237.79 754.383 1236.66 756.653 1235.57 758.794L1233.87 761.991H1238.15L1239.15 759.977C1240.29 757.596 1241.48 755.022 1242.65 752.385C1243.83 752.593 1253.55 754.271 1258.07 753.408C1262.18 752.609 1267.15 750.643 1268.98 747.207C1269.43 746.408 1269.68 745.539 1269.72 744.653C1269.76 743.767 1269.58 742.884 1269.19 742.061C1268.81 741.237 1268.22 740.49 1267.48 739.868C1266.73 739.246 1265.85 738.763 1264.87 738.448C1258.88 736.737 1249.8 742.507 1246.41 746.359C1246.21 746.583 1244.4 749.252 1243.29 750.947C1243.76 749.86 1244.23 748.821 1244.72 747.75C1245.66 745.528 1246.6 743.307 1247.49 740.909C1247.9 739.742 1248.32 738.56 1248.75 737.377C1249.18 736.194 1249.48 734.915 1249.86 733.669C1250.69 730.776 1251.33 727.803 1251.91 724.798C1254.19 725.501 1262.35 727.899 1266.55 727.643C1270.75 727.387 1275.96 726.045 1278.45 722.928C1279.04 722.19 1279.43 721.356 1279.62 720.479C1279.8 719.603 1279.77 718.703 1279.52 717.838C1279.28 716.973 1278.82 716.161 1278.18 715.455C1277.54 714.749 1276.73 714.164 1275.81 713.737C1270.16 711.292 1260.16 715.815 1256.17 719.188C1255.92 719.395 1253.38 722.081 1252.03 723.583C1252.35 721.777 1252.7 719.971 1252.97 718.133C1253.74 712.826 1254.32 707.44 1254.95 702.053C1255.13 700.455 1255.34 698.777 1255.55 697.131C1256.36 697.386 1265.96 700.423 1270.61 700.135C1274.79 699.896 1280.03 698.537 1282.5 695.42C1283.09 694.689 1283.5 693.862 1283.69 692.99C1283.89 692.118 1283.86 691.222 1283.63 690.357C1283.39 689.493 1282.95 688.679 1282.32 687.969C1281.7 687.258 1280.9 686.666 1279.99 686.23C1274.34 683.785 1264.32 688.308 1260.35 691.68C1260.05 691.936 1256.4 695.804 1255.51 696.827C1255.96 693.215 1256.45 689.618 1257.11 686.086C1257.95 681.308 1259.17 676.583 1260.75 671.941C1261.12 672.069 1271.12 675.265 1275.94 674.978C1280.14 674.738 1285.36 673.379 1287.85 670.263C1288.44 669.531 1288.84 668.704 1289.04 667.832C1289.23 666.96 1289.21 666.064 1288.98 665.199C1288.74 664.335 1288.3 663.521 1287.67 662.811C1287.04 662.1 1286.25 661.508 1285.34 661.072C1279.69 658.627 1269.67 663.15 1265.68 666.522C1265.38 666.778 1261.44 670.95 1260.8 671.765C1260.8 671.493 1260.95 671.206 1261.05 670.934C1262.78 666.319 1264.98 661.842 1267.64 657.556C1269.09 655.174 1270.61 652.969 1272.16 650.843C1274.04 651.61 1282.18 654.998 1286.56 655.142C1290.95 655.286 1296.17 654.487 1298.99 651.562C1299.68 650.89 1300.19 650.104 1300.49 649.255C1300.8 648.407 1300.89 647.514 1300.76 646.633C1300.64 645.752 1300.3 644.902 1299.77 644.138C1299.24 643.374 1298.53 642.713 1297.68 642.196C1292.42 639.239 1281.86 642.787 1277.45 645.776C1277.2 645.936 1275 647.806 1273.4 649.196C1274.12 648.253 1274.83 647.263 1275.53 646.367C1278.17 642.995 1280.84 639.974 1283.21 637.449C1284.59 635.978 1285.85 634.668 1286.98 633.469C1289.2 633.469 1298.13 633.197 1302.04 631.647C1305.96 630.096 1310.2 627.299 1311.12 623.655C1311.36 622.793 1311.39 621.897 1311.2 621.026C1311.01 620.154 1310.61 619.325 1310.03 618.592C1309.44 617.858 1308.68 617.236 1307.8 616.765C1306.91 616.294 1305.92 615.984 1304.89 615.855C1298.62 615.28 1291.16 622.568 1288.86 626.932C1288.67 627.315 1286.38 633.517 1286.49 633.517H1286.62C1285.43 634.668 1284.17 635.898 1282.85 637.273C1280.41 639.83 1277.66 642.739 1274.93 646.08C1271.93 649.643 1269.18 653.352 1266.7 657.188C1263.9 661.482 1261.55 665.974 1259.67 670.614V670.79C1259.67 669.192 1259.67 664.828 1259.58 664.493C1258.84 659.698 1254.17 650.955 1247.98 649.98C1246.94 649.849 1245.89 649.904 1244.88 650.139C1243.87 650.374 1242.93 650.786 1242.12 651.347C1241.3 651.908 1240.64 652.606 1240.16 653.397C1239.69 654.188 1239.41 655.055 1239.35 655.941C1238.99 659.714 1242.21 663.486 1245.36 665.851C1248.88 668.536 1258.71 671.142 1259.5 671.349C1257.74 676.109 1256.35 680.963 1255.34 685.878C1254.74 688.739 1254.25 691.648 1253.78 694.557C1253.78 693.199 1253.78 691.984 1253.78 691.824C1253.04 687.029 1248.37 678.286 1242.16 677.311C1241.12 677.183 1240.07 677.24 1239.06 677.476C1238.06 677.713 1237.12 678.124 1236.31 678.685C1235.5 679.246 1234.84 679.943 1234.36 680.733C1233.89 681.523 1233.61 682.388 1233.55 683.273C1233.19 687.029 1236.41 690.801 1239.56 693.183C1242.7 695.564 1251.05 697.978 1253.27 698.553L1252.76 701.91C1252.01 707.28 1251.29 712.634 1250.39 717.893C1250.07 719.747 1249.67 721.553 1249.3 723.359C1249.3 722.161 1249.3 721.154 1249.3 720.994C1248.58 716.199 1243.89 707.456 1237.69 706.481C1236.66 706.353 1235.61 706.409 1234.6 706.646C1233.59 706.882 1232.66 707.294 1231.85 707.854C1231.04 708.415 1230.37 709.113 1229.9 709.902C1229.42 710.692 1229.15 711.557 1229.09 712.443C1228.73 716.199 1231.95 719.971 1235.08 722.352C1238.2 724.734 1245.77 726.892 1248.39 727.611C1247.94 729.465 1247.49 731.303 1246.94 733.077C1246.53 734.276 1246.24 735.459 1245.76 736.641C1245.27 737.824 1244.87 739.007 1244.42 740.174C1243.48 742.38 1242.53 744.665 1241.52 746.807C1240.86 748.293 1240.18 749.7 1239.5 751.122C1239.84 749.284 1240.43 745.672 1240.43 745.368C1240.36 741.167 1239.02 737.051 1236.55 733.413C1236.57 732.942 1236.53 732.471 1236.43 732.006C1236.29 731.129 1235.94 730.287 1235.39 729.532C1234.85 728.777 1234.12 728.127 1233.27 727.622C1232.41 727.117 1231.44 726.769 1230.41 726.599C1229.39 726.429 1228.34 726.442 1227.32 726.636C1221.22 728.01 1217.36 737.089 1217.07 741.868C1217.07 742.14 1217.26 745.225 1217.43 747.159C1217.13 746.024 1216.85 744.937 1216.53 743.786C1215.89 741.484 1215.15 739.231 1214.4 736.785C1213.99 735.619 1213.57 734.436 1213.14 733.237C1212.7 732.038 1212.16 730.84 1211.67 729.625C1210.46 726.828 1209.09 724.047 1207.62 721.265C1209.97 720.786 1218.32 718.98 1221.67 716.79C1225.02 714.6 1228.54 711.068 1228.52 707.28C1228.54 706.395 1228.34 705.516 1227.93 704.7C1227.53 703.885 1226.93 703.149 1226.17 702.541C1225.41 701.932 1224.51 701.464 1223.53 701.165C1222.55 700.867 1221.5 700.745 1220.46 700.807C1214.19 701.382 1208.75 709.853 1207.6 714.537C1207.6 714.824 1207.17 718.261 1207 720.163C1206.11 718.564 1205.23 716.822 1204.25 715.176C1201.44 710.381 1198.45 705.586 1195.45 700.791L1192.76 696.411C1193.61 696.236 1203.57 694.27 1207.34 691.84C1210.67 689.666 1214.21 686.102 1214.17 682.33C1214.19 681.443 1213.99 680.563 1213.59 679.745C1213.18 678.928 1212.58 678.19 1211.83 677.58C1211.07 676.97 1210.17 676.5 1209.19 676.2C1208.2 675.901 1207.16 675.779 1206.11 675.841C1199.84 676.416 1194.4 684.887 1193.27 689.57C1193.27 689.922 1192.65 694.877 1192.59 696.14C1190.71 692.943 1188.69 689.746 1186.94 686.438C1184.52 682.072 1182.44 677.576 1180.71 672.98C1181.1 672.98 1191.52 670.902 1195.36 668.393C1198.69 666.219 1202.23 662.67 1202.21 658.882C1202.23 657.997 1202.03 657.119 1201.62 656.303C1201.22 655.487 1200.62 654.752 1199.86 654.143C1199.1 653.534 1198.2 653.066 1197.22 652.768C1196.24 652.469 1195.2 652.347 1194.15 652.409C1187.88 652.985 1182.44 661.456 1181.29 666.139C1181.29 666.506 1180.65 671.829 1180.63 672.804C1180.52 672.532 1180.39 672.26 1180.29 671.989C1178.73 667.332 1177.67 662.566 1177.11 657.748C1176.75 655.094 1176.6 652.537 1176.51 650.044C1178.49 649.836 1187.56 648.813 1191.31 646.847C1195.06 644.881 1198.84 641.796 1199.35 638.04C1199.48 637.161 1199.4 636.268 1199.1 635.419C1198.8 634.569 1198.3 633.781 1197.63 633.105C1196.95 632.428 1196.12 631.879 1195.18 631.49C1194.24 631.101 1193.22 630.883 1192.18 630.848C1185.87 630.848 1179.37 638.743 1177.62 643.299C1177.53 643.538 1176.9 646.144 1176.47 648.094C1176.47 646.975 1176.47 645.808 1176.47 644.737C1176.47 640.693 1176.77 636.985 1177.07 633.709C1177.26 631.839 1177.47 630.16 1177.7 628.578C1179.58 627.523 1186.81 623.144 1188.99 620.027C1191.18 616.91 1192.99 612.579 1191.35 609.062C1190.99 608.229 1190.43 607.469 1189.7 606.83C1188.98 606.191 1188.1 605.687 1187.14 605.351C1186.17 605.014 1185.13 604.852 1184.09 604.874C1183.04 604.897 1182.01 605.104 1181.07 605.482C1175.42 607.943 1174 617.501 1174.93 622.217C1174.93 622.632 1177.11 628.882 1177.22 628.834L1177.32 628.754C1177.07 630.352 1176.83 631.95 1176.6 633.661C1176.23 636.953 1175.83 640.661 1175.72 644.721C1175.53 649.098 1175.66 653.48 1176.09 657.843C1176.54 662.733 1177.5 667.579 1178.96 672.324V672.5C1177.96 671.174 1175.04 667.561 1174.78 667.306C1171.01 663.677 1161.48 658.547 1155.68 660.625C1154.73 661.001 1153.89 661.541 1153.2 662.209C1152.52 662.877 1152 663.659 1151.69 664.505C1151.38 665.351 1151.28 666.243 1151.39 667.124C1151.51 668.006 1151.84 668.856 1152.37 669.623C1154.57 672.852 1159.69 674.482 1163.85 674.994Z" fill="#263238"/>
<path d="M1272.04 649.852C1272.04 649.852 1274.06 643.602 1274.14 643.203C1274.91 638.408 1273.12 628.93 1267.45 626.596C1266.49 626.242 1265.46 626.06 1264.42 626.063C1263.37 626.066 1262.34 626.252 1261.38 626.612C1260.43 626.971 1259.57 627.495 1258.87 628.149C1258.17 628.804 1257.63 629.576 1257.3 630.416C1255.77 633.964 1257.69 638.328 1259.99 641.317C1262.63 644.833 1272.04 649.852 1272.04 649.852Z" fill="#263238"/>
<g opacity="0.3">
<path d="M682.779 683.625C876.918 683.625 1034.3 550.052 1034.3 385.281C1034.3 220.511 876.918 86.9384 682.779 86.9384C488.641 86.9384 331.26 220.511 331.26 385.281C331.26 550.052 488.641 683.625 682.779 683.625Z" stroke="black" stroke-linecap="round" stroke-linejoin="round"/>
<path d="M682.78 681.398C809.928 681.398 913.003 547.825 913.003 383.055C913.003 218.285 809.928 84.7119 682.78 84.7119C555.631 84.7119 452.557 218.285 452.557 383.055C452.557 547.825 555.631 681.398 682.78 681.398Z" stroke="black" stroke-linecap="round" stroke-linejoin="round"/>
<path d="M682.78 681.398C727.2 681.398 763.21 547.825 763.21 383.055C763.21 218.285 727.2 84.7119 682.78 84.7119C638.359 84.7119 602.349 218.285 602.349 383.055C602.349 547.825 638.359 681.398 682.78 681.398Z" stroke="black" stroke-linecap="round" stroke-linejoin="round"/>
<path d="M501.165 130.13H865.034" stroke="black" stroke-linecap="round" stroke-linejoin="round"/>
<path d="M366.9 257.027H999.277" stroke="black" stroke-linecap="round" stroke-linejoin="round"/>
<path d="M332.71 383.906H1033.47" stroke="black" stroke-linecap="round" stroke-linejoin="round"/>
<path d="M363.914 510.784H1002.26" stroke="black" stroke-linecap="round" stroke-linejoin="round"/>
<path d="M496.558 637.681H869.62" stroke="black" stroke-linecap="round" stroke-linejoin="round"/>
</g>
<path d="M1356.53 288.388V224.215C1356.53 222.909 1355.92 221.657 1354.83 220.734C1353.74 219.81 1352.26 219.292 1350.73 219.292H1246.62C1245.08 219.292 1243.61 219.81 1242.52 220.734C1241.43 221.657 1240.82 222.909 1240.82 224.215V288.388H1234.12V290.482C1234.12 291.202 1234.45 291.893 1235.05 292.403C1235.65 292.913 1236.47 293.199 1237.32 293.199H1360.03C1360.45 293.199 1360.86 293.129 1361.25 292.992C1361.64 292.855 1361.99 292.655 1362.29 292.402C1362.58 292.15 1362.82 291.85 1362.97 291.52C1363.13 291.191 1363.21 290.838 1363.21 290.482V288.388H1356.53Z" fill="#263238" stroke="#263238" stroke-linecap="round" stroke-linejoin="round"/>
<path d="M1252.89 217.454H1352.84C1353.87 217.454 1354.9 217.627 1355.85 217.964C1356.81 218.3 1357.68 218.793 1358.41 219.415C1359.15 220.037 1359.73 220.775 1360.13 221.588C1360.52 222.4 1360.73 223.271 1360.73 224.151V286.71H1245V224.215C1244.99 223.33 1245.19 222.452 1245.58 221.632C1245.97 220.812 1246.55 220.066 1247.29 219.438C1248.02 218.809 1248.89 218.31 1249.86 217.97C1250.82 217.629 1251.85 217.454 1252.89 217.454Z" fill="white" stroke="#263238" stroke-linecap="round" stroke-linejoin="round"/>
<path d="M1255.1 219.963H1350.69C1352.78 219.963 1354.79 220.669 1356.27 221.925C1357.75 223.181 1358.58 224.884 1358.58 226.66V284.328H1247.17V226.66C1247.17 225.778 1247.37 224.904 1247.77 224.09C1248.17 223.275 1248.76 222.536 1249.49 221.913C1250.23 221.291 1251.1 220.798 1252.06 220.464C1253.03 220.129 1254.06 219.959 1255.1 219.963Z" fill="#EB657F" stroke="#263238" stroke-linecap="round" stroke-linejoin="round"/>
<path d="M1238.32 286.614H1367.41V287.78C1367.41 288.755 1366.95 289.691 1366.14 290.38C1365.33 291.069 1364.23 291.457 1363.08 291.457H1242.65C1241.5 291.457 1240.4 291.069 1239.58 290.38C1238.77 289.691 1238.32 288.755 1238.32 287.78V286.646V286.614Z" fill="white" stroke="#263238" stroke-linecap="round" stroke-linejoin="round"/>
<path d="M1133.12 81.3234H1052.68C1046.18 81.3234 1040.91 85.7959 1040.91 91.313V230.864C1040.91 236.381 1046.18 240.853 1052.68 240.853H1133.12C1139.62 240.853 1144.89 236.381 1144.89 230.864V91.313C1144.89 85.7959 1139.62 81.3234 1133.12 81.3234Z" fill="#263238" stroke="#263238" stroke-linecap="round" stroke-linejoin="round"/>
<path d="M1141.36 74.3226H1060.93C1054.43 74.3226 1049.16 78.7951 1049.16 84.3122V223.863C1049.16 229.38 1054.43 233.853 1060.93 233.853H1141.36C1147.86 233.853 1153.13 229.38 1153.13 223.863V84.3122C1153.13 78.7951 1147.86 74.3226 1141.36 74.3226Z" fill="white" stroke="#263238" stroke-linecap="round" stroke-linejoin="round"/>
<path d="M1153.13 94.6854V86.3901C1153.13 83.1896 1151.64 80.1202 1148.97 77.8571C1146.3 75.594 1142.69 74.3226 1138.92 74.3226H1063.38C1059.61 74.3226 1055.99 75.594 1053.33 77.8571C1050.66 80.1202 1049.16 83.1896 1049.16 86.3901V94.6854H1153.13Z" fill="#EB657F" stroke="#263238" stroke-linecap="round" stroke-linejoin="round"/>
<path d="M1049.16 210.085V221.785C1049.16 224.986 1050.66 228.055 1053.33 230.318C1055.99 232.581 1059.61 233.853 1063.38 233.853H1138.92C1142.69 233.853 1146.3 232.581 1148.97 230.318C1151.64 228.055 1153.13 224.986 1153.13 221.785V210.085H1049.16Z" fill="#EB657F" stroke="#263238" stroke-linecap="round" stroke-linejoin="round"/>
<path d="M885.651 40.9848C875.2 40.9515 864.936 43.3448 855.972 47.9056C852.272 49.9398 848.719 52.1601 845.332 54.5547C844.458 55.2415 843.391 55.7258 842.234 55.961C841.076 56.1962 839.866 56.1742 838.721 55.8973C837.845 55.6707 837.041 55.2776 836.371 54.7477C835.7 54.2178 835.181 53.5651 834.852 52.8393C834.524 52.1135 834.394 51.3337 834.474 50.5591C834.554 49.7845 834.841 49.0355 835.313 48.3692C836.042 47.4277 836.93 46.5822 837.949 45.8598C849.117 37.2661 863.248 31.9531 878.25 30.7075C899.305 28.9014 917.628 34.3517 933.504 46.0516C934.368 46.5632 935.096 47.223 935.641 47.9884C936.186 48.7538 936.536 49.6077 936.668 50.4949C936.812 51.508 936.602 52.5346 936.065 53.4474C935.527 54.3601 934.686 55.1189 933.645 55.6296C932.604 56.1402 931.41 56.3802 930.209 56.3198C929.009 56.2595 927.856 55.9014 926.894 55.29C925.651 54.5547 924.578 53.6916 923.391 52.8125C913.245 45.5576 900.496 41.4435 887.233 41.1447L885.651 40.9848Z" fill="#263238"/>
<path d="M916.706 69.5152C915.799 69.5103 914.903 69.3523 914.068 69.0505C913.234 68.7486 912.479 68.3089 911.847 67.757C905.168 62.254 896.323 59.0454 887.021 58.7503C877.718 58.4551 868.616 61.0943 861.471 66.1587C860.416 66.9099 859.399 67.757 858.288 68.3804C857.04 69.1742 855.485 69.5379 853.934 69.3986C852.383 69.2592 850.951 68.6271 849.927 67.6291C848.905 66.6538 848.356 65.3862 848.391 64.0814C848.426 62.7766 849.042 61.5314 850.115 60.5965C855.099 56.1892 861.224 52.829 868.006 50.7827C874.276 48.7436 880.972 47.8123 887.681 48.0459C894.391 48.2795 900.973 49.6731 907.026 52.1413C912.225 54.153 916.948 56.9534 920.962 60.4047C921.879 61.1517 922.5 62.1218 922.739 63.1811C922.979 64.2403 922.825 65.3365 922.299 66.3185C921.862 67.2716 921.092 68.0885 920.092 68.6598C919.092 69.2311 917.911 69.5296 916.706 69.5152Z" fill="#263238"/>
<path d="M885.426 65.8549C889.491 65.841 893.515 66.5441 897.243 67.9199C900.971 69.2956 904.322 71.3138 907.083 73.8466C908.2 74.798 908.847 76.0752 908.892 77.4177C908.938 78.7602 908.378 80.0668 907.328 81.0711C906.221 82.0814 904.699 82.6926 903.077 82.7789C901.454 82.8651 899.855 82.4198 898.608 81.5346C896.515 80.0007 894.198 78.7008 891.716 77.6666C885.162 75.397 879.154 76.6597 873.938 80.6396C873.133 81.4004 872.124 81.9862 870.997 82.3478C869.87 82.7093 868.657 82.8361 867.46 82.7174C866.423 82.5691 865.45 82.1948 864.636 81.6312C863.822 81.0675 863.194 80.334 862.814 79.5024C862.434 78.6708 862.316 77.7698 862.47 76.8876C862.624 76.0053 863.045 75.1722 863.693 74.47C866.493 71.5513 870.131 69.2943 874.258 67.9168C877.788 66.6216 881.581 65.9213 885.426 65.8549Z" fill="#263238"/>
<path d="M885.708 97.0385C884.714 97.0537 883.726 96.8987 882.804 96.5828C881.882 96.2668 881.045 95.7965 880.342 95.1998C879.639 94.603 879.084 93.8922 878.712 93.1096C878.34 92.3271 878.157 91.489 878.175 90.6452C878.175 88.9661 878.953 87.3542 880.341 86.158C881.73 84.9617 883.617 84.277 885.595 84.2518C887.593 84.2306 889.519 84.8839 890.949 86.0679C892.38 87.2519 893.197 88.8696 893.222 90.5653C893.247 92.2609 892.477 93.8955 891.082 95.1095C889.687 96.3234 887.781 97.0173 885.783 97.0385H885.708Z" fill="#263238"/>
<path d="M1315.54 401.034H1206.64C1199.73 401.034 1194.12 405.625 1194.12 411.289V435.379C1194.12 441.043 1199.73 445.635 1206.64 445.635H1315.54C1322.46 445.635 1328.06 441.043 1328.06 435.379V411.289C1328.06 405.625 1322.46 401.034 1315.54 401.034Z" fill="#263238" stroke="#263238" stroke-linecap="round" stroke-linejoin="round"/>
<path d="M1318.85 397.922H1209.96C1203.04 397.922 1197.43 402.513 1197.43 408.177V432.267C1197.43 437.931 1203.04 442.523 1209.96 442.523H1318.85C1325.77 442.523 1331.38 437.931 1331.38 432.267V408.177C1331.38 402.513 1325.77 397.922 1318.85 397.922Z" fill="white" stroke="#263238" stroke-linecap="round" stroke-linejoin="round"/>
<path d="M1231.05 413.411C1231.05 415.431 1230.32 417.406 1228.95 419.085C1227.58 420.765 1225.63 422.074 1223.35 422.847C1221.07 423.62 1218.57 423.822 1216.15 423.428C1213.73 423.034 1211.5 422.061 1209.76 420.633C1208.02 419.205 1206.83 417.385 1206.35 415.404C1205.87 413.423 1206.11 411.369 1207.06 409.503C1208 407.637 1209.6 406.042 1211.65 404.919C1213.7 403.797 1216.11 403.198 1218.58 403.198C1220.22 403.196 1221.84 403.459 1223.36 403.972C1224.87 404.484 1226.25 405.237 1227.41 406.185C1228.56 407.134 1229.48 408.261 1230.11 409.501C1230.74 410.741 1231.06 412.069 1231.05 413.411Z" fill="#EB657F" stroke="#263238" stroke-linecap="round" stroke-linejoin="round"/>
<path d="M1242.15 409.479H1316.42" stroke="#263238" stroke-linecap="round" stroke-linejoin="round"/>
<path d="M1242.15 419.692H1316.42" stroke="#263238" stroke-linecap="round" stroke-linejoin="round"/>
<path d="M1242.15 429.891H1316.42" stroke="#263238" stroke-linecap="round" stroke-linejoin="round"/>
<path d="M1315.54 465.269H1206.64C1199.73 465.269 1194.12 469.86 1194.12 475.524V499.614C1194.12 505.278 1199.73 509.869 1206.64 509.869H1315.54C1322.46 509.869 1328.06 505.278 1328.06 499.614V475.524C1328.06 469.86 1322.46 465.269 1315.54 465.269Z" fill="#263238" stroke="#263238" stroke-linecap="round" stroke-linejoin="round"/>
<path d="M1318.85 462.171H1209.96C1203.04 462.171 1197.43 466.762 1197.43 472.426V496.516C1197.43 502.18 1203.04 506.772 1209.96 506.772H1318.85C1325.77 506.772 1331.38 502.18 1331.38 496.516V472.426C1331.38 466.762 1325.77 462.171 1318.85 462.171Z" fill="white" stroke="#263238" stroke-linecap="round" stroke-linejoin="round"/>
<path d="M1218.65 487.845C1225.53 487.845 1231.11 483.279 1231.11 477.646C1231.11 472.013 1225.53 467.447 1218.65 467.447C1211.77 467.447 1206.19 472.013 1206.19 477.646C1206.19 483.279 1211.77 487.845 1218.65 487.845Z" fill="#EB657F" stroke="#263238" stroke-linecap="round" stroke-linejoin="round"/>
<path d="M1242.15 473.728H1316.42" stroke="#263238" stroke-linecap="round" stroke-linejoin="round"/>
<path d="M1242.15 483.927H1316.42" stroke="#263238" stroke-linecap="round" stroke-linejoin="round"/>
<path d="M1242.15 494.125H1316.42" stroke="#263238" stroke-linecap="round" stroke-linejoin="round"/>
<path d="M482.578 43.424H350.621V114.838H482.578V43.424Z" fill="#263238" stroke="#263238" stroke-miterlimit="10"/>
<path d="M489.528 37.5101H357.57V108.924H489.528V37.5101Z" fill="white" stroke="#263238" stroke-linecap="round" stroke-linejoin="round"/>
<path d="M357.57 37.5101L423.558 73.2169L489.528 37.5101" stroke="#263238" stroke-linecap="round" stroke-linejoin="round"/>
<path d="M482.578 58.8479C492.615 58.8479 500.751 51.9424 500.751 43.424C500.751 34.9055 492.615 28 482.578 28C472.542 28 464.405 34.9055 464.405 43.424C464.405 51.9424 472.542 58.8479 482.578 58.8479Z" fill="#263238" stroke="#263238" stroke-miterlimit="10"/>
<path d="M482.465 52.055C481.249 52.1264 480.036 51.887 478.981 51.3677C478.198 50.9052 477.636 50.2187 477.4 49.4337C477.104 48.4849 476.965 47.506 476.985 46.5247H481.147C481.137 47.0597 481.181 47.5945 481.279 48.1231C481.318 48.4615 481.483 48.7807 481.75 49.0341C481.886 49.1338 482.045 49.208 482.217 49.2521C482.389 49.2962 482.57 49.309 482.748 49.2899C482.943 49.2974 483.137 49.2579 483.307 49.1759C483.477 49.0938 483.616 48.9727 483.708 48.8263C483.928 48.4314 484.044 48.0005 484.047 47.5637C484.047 47.0202 484.047 46.3649 484.047 45.5817C484.055 45.0473 484.017 44.5132 483.934 43.9834C483.875 43.5958 483.714 43.2245 483.464 42.8965C483.342 42.7585 483.182 42.6482 482.998 42.5757C482.814 42.5031 482.612 42.4706 482.409 42.4809C482.209 42.4786 482.012 42.5132 481.83 42.5822C481.648 42.6512 481.485 42.753 481.354 42.8805C481.027 43.2376 480.819 43.6626 480.752 44.1112H476.985L477.362 33.8659H487.268V36.9347H480.959L480.733 40.5949C480.986 40.336 481.328 40.1515 481.712 40.0675C482.209 39.9082 482.728 39.8061 483.256 39.7638C484.201 39.6411 485.166 39.8175 485.968 40.2593C486.751 40.7498 487.331 41.438 487.625 42.2252C488.012 43.2583 488.196 44.3382 488.172 45.4219C488.183 46.2989 488.114 47.1753 487.964 48.0432C487.862 48.7676 487.593 49.4681 487.173 50.105C486.765 50.6879 486.162 51.155 485.441 51.4476C484.517 51.8404 483.499 52.0482 482.465 52.055Z" fill="#EB657F"/>
<path d="M292.199 300.082H223.65C222.342 300.08 221.047 300.297 219.839 300.72C218.63 301.143 217.532 301.764 216.607 302.548C215.681 303.332 214.947 304.263 214.446 305.288C213.945 306.313 213.687 307.412 213.688 308.521V348.208C213.688 350.451 214.737 352.601 216.605 354.187C218.474 355.772 221.008 356.663 223.65 356.663H233.066L220.053 382.764L249.827 356.663H292.143C293.45 356.663 294.745 356.444 295.952 356.019C297.16 355.594 298.257 354.971 299.18 354.186C300.104 353.401 300.836 352.468 301.335 351.443C301.833 350.417 302.088 349.318 302.086 348.208V308.521C302.091 306.29 301.053 304.148 299.199 302.566C297.346 300.984 294.828 300.091 292.199 300.082Z" fill="#263238" stroke="#263238" stroke-linecap="round" stroke-linejoin="round"/>
<path d="M299.129 297.876H230.58C229.274 297.874 227.979 298.091 226.772 298.515C225.564 298.938 224.467 299.559 223.543 300.344C222.62 301.128 221.887 302.059 221.388 303.084C220.89 304.109 220.634 305.207 220.637 306.316V346.002C220.634 347.111 220.89 348.21 221.388 349.234C221.887 350.259 222.62 351.19 223.543 351.975C224.467 352.759 225.564 353.38 226.772 353.804C227.979 354.227 229.274 354.444 230.58 354.442H239.996L227.04 380.558L256.832 354.442H299.129C300.437 354.444 301.732 354.227 302.94 353.804C304.149 353.381 305.247 352.759 306.173 351.975C307.098 351.192 307.832 350.261 308.333 349.236C308.834 348.211 309.092 347.112 309.092 346.002V306.316C309.092 305.206 308.834 304.107 308.333 303.082C307.832 302.058 307.098 301.126 306.173 300.343C305.247 299.559 304.149 298.937 302.94 298.514C301.732 298.091 300.437 297.874 299.129 297.876Z" fill="white" stroke="#263238" stroke-linecap="round" stroke-linejoin="round"/>
<path d="M285.25 326.215L282.727 328.357L265.476 342.934L245.834 326.215C244.706 325.257 243.812 324.12 243.202 322.868C242.592 321.617 242.279 320.275 242.28 318.921C242.281 317.567 242.596 316.226 243.207 314.975C243.819 313.724 244.715 312.587 245.844 311.63C248.124 309.697 251.215 308.612 254.438 308.614C256.033 308.614 257.613 308.882 259.087 309.401C260.561 309.92 261.9 310.68 263.028 311.638L265.551 313.78L268.056 311.638C269.184 310.68 270.523 309.92 271.997 309.401C273.471 308.882 275.051 308.614 276.646 308.614C278.242 308.613 279.822 308.879 281.297 309.397C282.772 309.914 284.112 310.673 285.241 311.63C286.37 312.587 287.265 313.724 287.877 314.975C288.488 316.226 288.803 317.567 288.804 318.921C288.805 320.275 288.492 321.617 287.882 322.868C287.272 324.12 286.378 325.257 285.25 326.215Z" fill="#EB657F" stroke="#263238" stroke-linecap="round" stroke-linejoin="round"/>
<path d="M190.541 143.293H177.359C166.108 143.192 155.241 139.805 146.587 133.703L145.08 132.648C144.964 132.568 144.872 132.465 144.813 132.348C144.754 132.231 144.729 132.103 144.741 131.976L148.263 90.1478C148.274 89.9919 148.339 89.8422 148.45 89.7172C148.56 89.5922 148.711 89.4974 148.885 89.4446C155.551 87.3485 161.879 84.5451 167.717 81.1013C171.144 78.8476 179.016 72.5502 177.359 62.5605C176.756 58.7725 177.058 56.359 178.301 55.1602C178.574 54.8882 178.915 54.671 179.299 54.5245C179.684 54.378 180.102 54.3058 180.523 54.3131C182.236 54.3131 184.421 55.432 187.001 57.6217C192.5 62.2888 192.896 67.851 192.82 72.71C192.432 78.0504 190.907 83.2869 188.319 88.1659C194.628 88.3577 216.699 89.1409 219.957 90.3237C222.491 91.6208 224.364 93.6721 225.212 96.0777C226.359 98.2458 226.447 100.711 225.456 102.935C224.469 104.693 223.05 106.251 221.295 107.506C221.926 108.583 222.265 109.767 222.288 110.969C222.311 112.172 222.016 113.365 221.426 114.459C220.436 116.174 219.209 117.783 217.773 119.254C218.596 120.254 219.173 121.386 219.467 122.581C219.762 123.776 219.768 125.009 219.487 126.206C218.46 128.974 216.43 131.396 213.686 133.127C213.971 134.044 213.993 135.006 213.751 135.932C213.508 136.858 213.008 137.721 212.293 138.45C211.24 139.723 209.878 140.791 208.3 141.582C206.722 142.373 204.963 142.869 203.14 143.037C198.949 143.315 194.743 143.4 190.541 143.293Z" fill="white"/>
<path d="M180.56 55.1283C182.105 55.1283 184.195 56.3431 186.38 58.1971C191.408 62.4647 192.029 67.4355 191.916 72.71C191.803 80.3021 186.888 88.9331 186.888 88.9331C186.888 88.9331 216.059 89.7962 219.581 91.0749C223.102 92.3536 226.605 99.1785 224.609 102.551C223.605 104.422 222.048 106.041 220.089 107.25C220.8 108.274 221.215 109.426 221.3 110.613C221.385 111.799 221.138 112.985 220.579 114.075C219.543 115.937 218.192 117.66 216.568 119.19C217.457 120.143 218.096 121.246 218.44 122.426C218.784 123.606 218.827 124.835 218.564 126.031C217.566 129.867 212.537 132.855 212.537 132.855C212.537 132.855 214.044 134.997 211.521 137.986C210.54 139.177 209.269 140.174 207.793 140.91C206.318 141.647 204.673 142.105 202.971 142.254C201.973 142.397 196.888 142.445 190.56 142.445H177.378C166.37 142.36 155.731 139.064 147.246 133.111L145.74 132.056L149.261 90.2118C156.016 88.0956 162.426 85.2598 168.338 81.7726C173.329 78.5759 179.845 71.8789 178.338 62.4807C177.472 57.1742 178.545 55.1443 180.56 55.1443M180.56 53.546C180.013 53.531 179.468 53.6176 178.964 53.7998C178.459 53.982 178.008 54.2554 177.641 54.6009C176.191 56.0074 175.758 58.5647 176.493 62.5926C178.018 72.1826 170.504 78.2243 167.189 80.382C161.406 83.7875 155.134 86.5536 148.527 88.6135C148.187 88.7205 147.89 88.9087 147.673 89.1554C147.456 89.4021 147.327 89.6968 147.303 90.004L143.743 131.944C143.723 132.198 143.773 132.452 143.891 132.685C144.009 132.919 144.191 133.125 144.421 133.287L145.928 134.342C154.755 140.558 165.833 144.007 177.302 144.108H190.485C194.73 144.229 198.98 144.154 203.216 143.884C205.162 143.702 207.04 143.17 208.725 142.324C210.411 141.478 211.864 140.337 212.989 138.977C213.699 138.207 214.214 137.322 214.502 136.376C214.791 135.43 214.846 134.444 214.666 133.479C217.361 131.68 219.334 129.218 220.315 126.43C220.9 124 220.367 121.473 218.827 119.365C220.124 117.965 221.248 116.454 222.18 114.858C222.793 113.754 223.124 112.552 223.15 111.332C223.176 110.111 222.897 108.9 222.33 107.778C223.933 106.514 225.243 105.007 226.191 103.334C226.74 102.135 227.004 100.855 226.969 99.5685C226.933 98.2821 226.598 97.0143 225.984 95.838C224.967 93.4724 222.914 90.5954 220.221 89.6204C217.038 88.4536 197.754 87.7024 189.619 87.4467C191.979 82.7844 193.362 77.8081 193.705 72.742C193.705 67.7232 193.366 61.9692 187.622 57.0783C184.816 54.6968 182.462 53.546 180.466 53.546H180.56Z" fill="#263238"/>
<path d="M149.657 87.2229H107.906V140.16H149.657V87.2229Z" fill="#263238" stroke="#263238" stroke-linecap="round" stroke-linejoin="round"/>
<path d="M86.0791 234.749L83.0848 237.307L62.6329 254.665L39.168 234.749C37.7927 233.616 36.6967 232.261 35.9437 230.765C35.1906 229.269 34.7956 227.66 34.7816 226.033C34.7676 224.406 35.1349 222.793 35.8621 221.287C36.5892 219.782 37.6618 218.414 39.0174 217.264C40.373 216.113 41.9846 215.203 43.7585 214.586C45.5323 213.968 47.433 213.657 49.3501 213.669C51.2672 213.68 53.1623 214.016 54.9254 214.655C56.6884 215.294 58.2841 216.224 59.6198 217.391L62.6329 219.949L65.6084 217.391C68.3205 215.087 71.9999 213.792 75.8371 213.791C79.6743 213.789 83.3551 215.082 86.0697 217.383C88.7842 219.685 90.3103 222.808 90.312 226.065C90.3138 229.321 88.7912 232.445 86.0791 234.749Z" fill="#263238" stroke="#263238" stroke-linecap="round" stroke-linejoin="round"/>
<path d="M310.974 196.245L306.718 199.858L277.678 224.488L244.402 196.245C240.713 192.952 238.686 188.565 238.753 184.021C238.821 179.478 240.978 175.136 244.764 171.923C248.55 168.709 253.666 166.879 259.019 166.821C264.373 166.764 269.542 168.484 273.422 171.615L277.678 175.227L281.934 171.615C285.783 168.347 291.003 166.51 296.447 166.508C301.892 166.507 307.113 168.341 310.964 171.607C314.815 174.873 316.98 179.304 316.981 183.925C316.983 188.545 314.822 192.977 310.974 196.245Z" fill="#EB657F" stroke="#263238" stroke-linecap="round" stroke-linejoin="round"/>
<path d="M1183.08 359.825C1189.71 355.018 1195.4 349.235 1199.9 342.721C1206.38 332.768 1211.89 321.727 1209.73 321.506C1207.56 321.286 1159.33 316.53 1140.84 316.734C1122.35 316.937 1124.76 316.088 1124.76 316.088V323.935C1124.76 323.935 1148.28 329.778 1154.29 330.865C1160.29 331.952 1178.05 335.825 1178.05 335.825L1172.05 340.156L1183.08 359.825Z" fill="white" stroke="#263238" stroke-linecap="round" stroke-linejoin="round"/>
<path d="M1178.05 335.825C1182.97 334.92 1187.78 333.618 1192.44 331.935Z" fill="white"/>
<path d="M1178.05 335.825C1182.97 334.92 1187.78 333.618 1192.44 331.935" stroke="#263238" stroke-linecap="round" stroke-linejoin="round"/>
<path d="M1072.42 297.371C1072.42 297.371 1054.91 304.402 1051.71 317.549C1048.51 330.695 1043.59 351.519 1036.45 362.593C1029.32 373.668 1004.02 376.351 1003.06 389.77C1002.1 403.188 1028.69 412.615 1030.99 417.354C1033.29 422.092 1013.14 429.634 1013.8 443.375C1014.46 457.116 1027.09 460.92 1034.51 460.36C1041.93 459.799 1057.11 453.345 1059.17 457.727C1061.22 462.109 1068.24 474.712 1086.08 467.086C1103.91 459.46 1104.23 447.791 1112.67 450.424C1121.1 453.056 1142.8 451.579 1140.56 427.018C1138.32 402.458 1145.76 382.551 1141.22 366.177C1136.68 349.804 1129.54 350.092 1125.96 340.7C1122.39 331.307 1132.46 326.075 1126.62 310.568C1120.78 295.061 1100.67 292.734 1093.53 293.022C1086.27 293.353 1079.13 294.824 1072.42 297.371Z" fill="#263238" stroke="#263238" stroke-linecap="round" stroke-linejoin="round"/>
<path d="M1138.56 573.294C1138.56 573.294 1139.03 598.517 1135.77 615.332C1132.52 632.148 1128.79 633.286 1129.26 654.721C1129.73 676.156 1123.27 726.585 1123.27 726.585C1123.27 726.585 1109.3 741.719 1111.61 744.25C1113.93 746.78 1123.74 749.345 1127.92 754.322C1132.1 759.298 1135.45 763.579 1147.96 766.517C1160.46 769.456 1161.95 766.942 1159.15 763.986C1156.34 761.031 1145.17 741.719 1142.37 734.568C1140.55 730.52 1139.29 726.288 1138.6 721.965C1138.6 720.708 1169.35 627.935 1172.63 616.657C1175.91 605.379 1178.28 574.194 1178.28 574.194L1138.56 573.294Z" fill="white" stroke="#263238" stroke-linecap="round" stroke-linejoin="round"/>
<path d="M1152.2 753.455L1144.66 754.746C1137.09 750.169 1130.72 744.144 1126.02 737.099C1123.85 733.956 1122.25 731.375 1120.84 729.269C1116.96 733.736 1109.86 742.381 1111.58 744.249C1113.91 746.763 1123.7 749.345 1127.88 754.322C1132.06 759.298 1135.42 763.579 1147.92 766.517C1160.43 769.455 1161.91 766.942 1159.11 763.986C1156.53 760.628 1154.22 757.109 1152.2 753.455Z" fill="#263238" stroke="#263238" stroke-linecap="round" stroke-linejoin="round"/>
<path d="M1096.64 587.205V601.914C1096.64 601.914 1075.66 614.942 1068.2 627.969C1060.75 640.997 1013.59 707.392 1011.82 709.498C1010.05 711.604 983.912 740.649 988.996 751.485C994.081 762.322 1002.05 756.105 1007.64 749.787C1013.23 743.468 1022.54 713.642 1022.54 713.642C1022.54 713.642 1103.63 636.734 1116.21 626.661C1128.79 616.589 1136.25 609.421 1138.56 602.288C1140.02 597.738 1141.11 593.101 1141.84 588.411C1141.84 588.411 1107.81 590.602 1096.64 587.205Z" fill="white" stroke="#263238" stroke-linecap="round" stroke-linejoin="round"/>
<path d="M995.06 739.714L1002.25 721.031C994.721 731.001 985.851 744.81 989.072 751.451C994.194 762.39 1002.12 756.071 1007.72 749.753C1010.22 746.933 1013.48 739.375 1016.3 731.901L1007.24 744.3L995.06 739.714Z" fill="#263238" stroke="#263238" stroke-linecap="round" stroke-linejoin="round"/>
<path d="M1100.99 442.305L1102.52 455.332C1102.52 455.332 1086.43 473.456 1083.08 504.267C1079.73 535.078 1080.75 586.746 1080.75 586.746C1080.75 586.746 1088.45 592.487 1112.23 594.305C1126.12 595.435 1140.11 594.72 1153.76 592.182L1157.11 591.587L1157.79 584.334C1164.72 584.797 1171.69 584.391 1178.51 583.129C1186.32 581.796 1193.88 579.457 1200.95 576.182C1200.95 576.182 1199.62 526.33 1190.24 497.931C1184.12 479.817 1176.5 462.143 1167.45 445.056L1163.44 429.056C1163.44 429.056 1123.59 440.759 1100.99 442.305Z" fill="#EB657F" stroke="#263238" stroke-linecap="round" stroke-linejoin="round"/>
<path d="M1153.4 449.286C1153.4 449.286 1156.75 469.532 1157.77 472.861C1158.79 476.19 1153.4 480.199 1153.4 480.199C1153.4 480.199 1160.78 540.003 1157.43 577.472" stroke="#263238" stroke-linecap="round" stroke-linejoin="round"/>
<path d="M1146.4 443.256L1150.75 463.791" stroke="#263238" stroke-linecap="round" stroke-linejoin="round"/>
<path d="M1163.82 449.625C1163.82 449.625 1169.16 461.413 1173.23 482.254" stroke="#263238" stroke-linecap="round" stroke-linejoin="round"/>
<path d="M1124.29 464.097C1124.29 464.097 1116.92 476.479 1118.64 497.32" stroke="#263238" stroke-linecap="round" stroke-linejoin="round"/>
<path d="M1127.64 465.914C1127.64 465.914 1125.96 489.778 1125.29 513.642" stroke="#263238" stroke-linecap="round" stroke-linejoin="round"/>
<path d="M1119.26 444.768L1120.94 455.332" stroke="#263238" stroke-linecap="round" stroke-linejoin="round"/>
<path d="M1123.29 444.462L1124.95 454.126" stroke="#263238" stroke-linecap="round" stroke-linejoin="round"/>
<path d="M1156.43 435.392L1158.11 444.156" stroke="#263238" stroke-linecap="round" stroke-linejoin="round"/>
<path d="M1160.8 433.591L1162.8 442.95" stroke="#263238" stroke-linecap="round" stroke-linejoin="round"/>
<path d="M1126.43 368.691C1126.43 368.691 1130.2 366.109 1135.85 361.982C1141.5 357.855 1178.79 335.027 1178.79 335.027L1197.49 372.003L1160.82 388.836C1160.82 388.836 1170.43 422.806 1169.47 427.375C1168.51 431.944 1161.07 433.642 1144.27 438.619C1129.06 442.913 1113.31 445.47 1097.39 446.228C1089.49 446.228 1091.39 445.804 1087.07 437.362C1082.76 428.92 1065.72 394.712 1071.24 381.073C1076.75 367.434 1090.78 370.305 1094.76 371.324C1098.73 372.343 1106.32 374.551 1106.32 374.551L1126.43 368.691Z" fill="white" stroke="#263238" stroke-linecap="round" stroke-linejoin="round"/>
<path d="M1088.39 358.33C1088.39 358.33 1095.34 371.647 1098.32 375.315C1101.29 378.984 1100.2 381.872 1110.99 381.498C1121.78 381.124 1128.39 374.84 1126.9 371.001C1124.2 363.052 1122.07 354.957 1120.5 346.763C1120.5 346.763 1119.45 355.035 1112.2 359.451C1104.95 363.867 1088.39 358.33 1088.39 358.33Z" fill="white" stroke="#263238" stroke-linecap="round" stroke-linejoin="round"/>
<path d="M1091.65 310.551C1091.65 310.551 1092.12 316.241 1085.12 330.763C1078.11 345.286 1074.16 346.543 1074.16 346.543C1074.16 346.543 1083.01 360.436 1091.65 364.003C1100.29 367.57 1113.35 368.844 1118.26 364.224C1123.18 359.604 1126.19 349.277 1126.19 344.436C1126.19 339.596 1120.35 320.657 1120.35 320.657C1120.35 320.657 1103.33 320.861 1091.65 310.551Z" fill="white" stroke="#263238" stroke-linecap="round" stroke-linejoin="round"/>
<path d="M1087.75 339.732C1087.75 339.732 1092.89 336.029 1097.17 337.184" stroke="#263238" stroke-linecap="round" stroke-linejoin="round"/>
<path d="M1109.32 339.732C1109.32 339.732 1109.07 342.279 1107 342.976" stroke="#263238" stroke-linecap="round" stroke-linejoin="round"/>
<path d="M1110.35 349.685C1110.35 349.685 1102.82 352.233 1096.74 349.226C1096.74 349.226 1098.62 357.328 1103.16 356.394C1107.7 355.46 1110.35 349.685 1110.35 349.685Z" stroke="#263238" stroke-linecap="round" stroke-linejoin="round"/>
<path d="M1085.12 330.729C1086.24 329.66 1087.61 328.829 1089.13 328.297C1090.65 327.765 1092.28 327.546 1093.91 327.655" stroke="#263238" stroke-linecap="round" stroke-linejoin="round"/>
<path d="M1105.21 324.904C1105.21 324.904 1109.32 318.415 1116.25 322.814" stroke="#263238" stroke-linecap="round" stroke-linejoin="round"/>
<path d="M1114.21 329.931C1114.74 331.171 1114.48 332.428 1113.63 332.733C1112.78 333.039 1111.63 332.258 1111.1 331.035C1110.58 329.812 1110.82 328.521 1111.69 328.232C1112.55 327.944 1113.68 328.674 1114.21 329.931Z" fill="#263238"/>
<path d="M1074.16 346.542C1074.16 346.542 1066.62 345.048 1069.01 350.84C1071.41 356.632 1082.1 357.328 1082.1 357.328L1074.16 346.542Z" fill="white" stroke="#263238" stroke-linecap="round" stroke-linejoin="round"/>
<path d="M1122.67 326.755C1122.67 326.755 1125.49 323.511 1126 328.148C1126.27 331.251 1126.01 334.373 1125.23 337.404L1122.67 326.755Z" stroke="#263238" stroke-linecap="round" stroke-linejoin="round"/>
<path d="M1071.71 393.812L1100.99 442.305L1127.88 404.632L1095.47 374.976" fill="white"/>
<path d="M1071.71 393.812L1100.99 442.305L1127.88 404.632L1095.47 374.976" stroke="#263238" stroke-linecap="round" stroke-linejoin="round"/>
<path d="M1162.35 299.996L1141.8 307.662C1140.31 308.218 1139.6 309.758 1140.22 311.101L1157.53 348.849C1158.14 350.193 1159.85 350.832 1161.34 350.276L1181.89 342.609C1183.38 342.054 1184.09 340.514 1183.47 339.17L1166.16 301.422C1165.55 300.079 1163.84 299.44 1162.35 299.996Z" fill="#EB657F" stroke="#263238" stroke-linecap="round" stroke-linejoin="round"/>
<path d="M1148.05 308.1L1143.59 309.762L1147.74 318.803L1152.19 317.141L1148.05 308.1Z" fill="#263238"/>
<path d="M1127.88 404.632C1127.88 404.632 1150.2 376.063 1152.12 370.661C1154.04 365.26 1149.48 343.825 1148.77 341.43C1148.05 339.035 1159.56 330.831 1162.69 329.099C1165.81 327.366 1166.77 328.233 1165.81 329.744C1164.85 331.256 1157.88 336.538 1156.92 337.982C1156.23 339.496 1155.82 341.103 1155.72 342.738C1155.72 342.738 1161.25 336.895 1163.4 335.808C1165.55 334.721 1172.29 331.256 1173.01 332.122L1173.25 333.821C1173.25 333.821 1176.13 333.617 1175.89 335.349C1175.64 337.082 1172.12 340.105 1172.12 340.105L1169.73 342.925C1169.73 342.925 1175.25 339.239 1175.72 340.751C1176.19 342.262 1169.48 347.545 1168.52 348.768C1167.82 349.836 1167.25 350.976 1166.85 352.165C1167.5 356.192 1167.42 360.289 1166.6 364.292C1165.54 367.277 1163.21 369.761 1160.12 371.205L1143.33 414.721C1143.33 414.721 1132.76 433.405 1130.6 436.156C1128.43 438.908 1125.55 437.855 1123.87 437.022C1122.2 436.19 1111.16 427.935 1111.16 427.935L1127.88 404.632Z" fill="white" stroke="#263238" stroke-linecap="round" stroke-linejoin="round"/>
<path d="M195.484 339.021C195.484 339.021 204.692 334.667 201.284 322.207C197.875 309.746 183.544 298.525 171.962 295.101C160.38 291.676 149.119 291.658 134.787 301.021C120.456 310.383 109.571 341.516 115.71 354.923C119.175 362.755 124.959 369.549 132.414 374.543C132.414 374.543 123.205 376.729 124.561 384.869C125.917 393.009 134.448 389.223 143.657 385.489C152.866 381.754 152.188 368.967 150.813 360.241C149.439 351.516 148.78 342.807 148.78 342.807C148.78 342.807 156.312 337.506 162.414 332.825C165.944 330.25 168.747 326.94 170.587 323.17L186.614 338.436C186.614 338.436 186.953 342.773 195.484 339.021Z" fill="#263238" stroke="#263238" stroke-linecap="round" stroke-linejoin="round"/>
<path d="M137.33 680.437L146.633 734.271C146.633 734.271 131.567 748.848 132.452 760.172C133.337 771.496 144.599 767.383 147.706 763.339C150.813 759.294 162.772 746.129 160.795 733.858C159.985 728.918 161.247 678.406 161.247 678.406L137.33 680.437Z" fill="white" stroke="#263238" stroke-linecap="round" stroke-linejoin="round"/>
<path d="M158.365 741.843C155.795 746.75 152.388 751.252 148.271 755.181L136.2 753.649L137.33 749.278C137.958 746.837 138.809 744.448 139.872 742.136C135.992 747.299 131.981 754.183 132.452 760.224C133.337 771.565 144.599 767.435 147.706 763.39C150.587 759.621 161.152 748.056 161.021 736.577C160.248 738.04 159.382 739.761 158.365 741.843Z" fill="#EB657F" stroke="#263238" stroke-linecap="round" stroke-linejoin="round"/>
<path d="M219.25 681.848L248.421 735.957C248.421 735.957 251.227 750.827 256.274 759.793C261.321 768.76 273.957 771.083 275.106 763.132C276.255 755.181 272.583 748.263 266.688 741.585C260.794 734.907 258.27 731.844 258.27 731.844L245.935 679.542L219.25 681.848Z" fill="white" stroke="#263238" stroke-linecap="round" stroke-linejoin="round"/>
<path d="M275.125 763.132C276.199 755.594 272.978 749.003 267.592 742.652L267.799 743.392L269.683 753.391C269.683 753.391 260.982 757.487 257.894 755.439C255.445 753.804 251.547 746.301 250.078 743.392C251.468 749.069 253.527 754.591 256.218 759.862C261.321 768.76 273.957 771.083 275.125 763.132Z" fill="#EB657F" stroke="#263238" stroke-linecap="round" stroke-linejoin="round"/>
<path d="M133.883 461.145C133.883 461.145 116.934 499.506 114.373 529.452C111.812 559.398 125.898 619.444 125.898 619.444C125.898 619.444 125.898 654.123 125.503 672.331C125.108 690.54 123.62 688.578 123.62 688.578L164.373 688.182C164.373 688.182 170.022 635.639 168.346 615.004C166.67 594.369 166.576 531.208 166.576 531.208H171.435C171.435 531.208 193.582 624.711 194.467 629.564C195.352 634.417 209.099 685.738 209.099 685.738L256.048 683.724C254.296 671.506 250.932 659.527 246.029 648.048C237.611 627.808 235.672 611.751 234.73 609.325C233.788 606.898 232.545 570.292 223.242 530.708C217.331 506.095 208.365 482.179 196.519 459.424C175.974 463.799 154.679 464.384 133.883 461.145Z" fill="white" stroke="#263238" stroke-linecap="round" stroke-linejoin="round"/>
<path d="M234.768 609.325C233.883 606.898 232.545 570.343 223.242 530.674C219.37 513.992 213.399 497.775 205.446 482.348C175.898 493.586 142.509 489.232 125.823 485.893C121.059 497.458 115.635 513.55 114.222 529.452C111.567 559.415 125.748 619.444 125.748 619.444C125.748 619.444 125.748 654.123 125.352 672.331C124.957 690.54 123.469 688.578 123.469 688.578L164.222 688.182C164.222 688.182 169.872 635.639 168.196 615.004C166.52 594.369 166.425 531.207 166.425 531.207H171.284C171.284 531.207 193.431 624.711 194.316 629.564C195.201 634.417 208.949 685.738 208.949 685.738L255.897 683.724C254.145 671.506 250.781 659.527 245.879 648.048C237.592 627.808 235.577 611.751 234.768 609.325Z" fill="#263238" stroke="#263238" stroke-linecap="round" stroke-linejoin="round"/>
<path d="M116.049 550.225L142.621 550.638L143.959 561.153L118.705 560.757" stroke="white" stroke-miterlimit="10"/>
<path d="M143.507 565.215C143.507 565.215 144.844 593.956 144.41 597.191C143.977 600.427 126.689 601.236 126.689 601.236" stroke="white" stroke-miterlimit="10"/>
<path d="M226.67 550.225L200.192 550.638L201.416 561.153L226.576 560.757" stroke="white" stroke-miterlimit="10"/>
<path d="M202.847 565.215C202.847 565.215 208.497 593.956 209.721 597.191C210.945 600.427 228.402 601.236 228.402 601.236" stroke="white" stroke-miterlimit="10"/>
<path d="M164.787 492.226L166.105 501.124L171.416 501.537L173.186 520.554" stroke="white" stroke-miterlimit="10"/>
<path d="M148.949 376.969C144.486 376.94 140.042 377.52 135.766 378.69C130.456 380.411 120.06 382.769 115.917 389.171C108.931 399.979 124.938 434.847 127.48 443.298C130.023 451.748 133.883 461.145 133.883 461.145C133.883 461.145 155.521 466.962 173.035 464.346C190.549 461.73 196.613 459.389 196.613 459.389C196.613 459.389 200.192 447.342 204.015 425.347C205.992 413.868 214.579 400.823 213.261 391.856C210.982 376.212 181.246 377.882 177.819 378.174C175.051 378.398 157.235 377.434 148.949 376.969Z" fill="#EB657F" stroke="#263238" stroke-linecap="round" stroke-linejoin="round"/>
<path d="M150.343 361.876C150.032 365.411 149.402 368.917 148.459 372.357C146.878 378.174 144.693 380.205 144.693 380.205C144.693 380.205 148.761 387.519 160.305 388.363C176.218 389.516 182.282 378.467 182.282 378.467C178.89 373.673 176.911 368.16 176.538 362.461L150.343 361.876Z" fill="white" stroke="#263238" stroke-linecap="round" stroke-linejoin="round"/>
<path d="M168.761 312.414C168.761 312.414 161.755 323.618 155.107 329.366C149.659 333.637 143.664 337.29 137.254 340.243C137.254 340.243 140.06 354.958 144.957 362.96C149.853 370.963 159.665 379.585 171.548 375.748C183.431 371.91 189.401 351.756 189.401 346.645C189.401 341.534 188.704 334.168 188.704 334.168C188.704 334.168 177.857 328.729 168.761 312.414Z" fill="white" stroke="#263238" stroke-linecap="round" stroke-linejoin="round"/>
<path d="M136.896 342.807C136.896 342.807 130.945 339.933 130.249 346.249C129.552 352.565 142.508 357.126 142.508 357.126L136.896 342.807Z" fill="white" stroke="#263238" stroke-linecap="round" stroke-linejoin="round"/>
<path d="M189.758 339.675C189.758 339.675 194.655 337.111 194.316 343.513C194.204 345.381 193.606 347.197 192.571 348.81C191.536 350.424 190.094 351.788 188.365 352.789L189.758 339.675Z" fill="white" stroke="#263238" stroke-linecap="round" stroke-linejoin="round"/>
<path d="M158.252 343.771C158.252 345.354 157.311 346.645 156.162 346.645C155.013 346.645 154.053 345.354 154.053 343.771C154.053 342.188 154.994 340.88 156.162 340.88C157.329 340.88 158.252 342.17 158.252 343.771Z" fill="#263238"/>
<path d="M177.197 343.771C177.197 345.354 176.256 346.645 175.088 346.645C173.921 346.645 172.998 345.354 172.998 343.771C172.998 342.188 173.939 340.88 175.088 340.88C176.237 340.88 177.197 342.17 177.197 343.771Z" fill="#263238"/>
<path d="M162.132 352.72C162.132 352.72 165.277 355.594 170.173 352.393" stroke="#263238" stroke-miterlimit="10"/>
<path d="M149.156 337.369C149.156 337.369 151.962 334.168 158.572 334.495" stroke="#263238" stroke-miterlimit="10"/>
<path d="M171.548 334.512C171.548 334.512 177.857 333.548 181.359 337.059" stroke="#263238" stroke-miterlimit="10"/>
<path d="M172.96 357.832C164.561 361.997 159.307 357.832 159.307 357.832C159.307 357.832 160.004 365.834 164.956 366.161C169.909 366.488 172.96 357.832 172.96 357.832Z" stroke="#263238" stroke-miterlimit="10"/>
<path d="M133.469 379.345C133.469 379.345 118.083 378.467 109.797 388.07C101.511 397.673 94.0531 465.051 98.8365 467.667C103.62 470.283 113.187 466.738 115.089 464.69C116.991 462.642 129.853 412.319 129.853 412.319" fill="#EB657F"/>
<path d="M133.469 379.345C133.469 379.345 118.083 378.467 109.797 388.07C101.511 397.673 94.0531 465.051 98.8365 467.667C103.62 470.283 113.187 466.738 115.089 464.69C116.991 462.642 129.853 412.319 129.853 412.319" stroke="#263238" stroke-linecap="round" stroke-linejoin="round"/>
<path d="M101.548 419.186C97.5748 438.548 93.1492 465.826 95.8987 467.375C100.682 469.991 112.151 468.252 114.053 466.204C115.334 464.845 123.469 438.22 126.746 424.211L101.548 419.186Z" fill="white" stroke="#263238" stroke-linecap="round" stroke-linejoin="round"/>
<path d="M193.789 379.482C197.558 378.97 201.406 379.276 205.021 380.377C208.637 381.477 211.918 383.34 214.598 385.816C218.007 388.845 220.85 401.907 224.862 413.507C232.188 434.538 235.973 458.081 233.167 460.112C228.798 463.279 224.165 466.996 221.999 465.275C219.834 463.554 194.636 410.684 194.636 410.684" fill="#EB657F"/>
<path d="M193.789 379.482C197.558 378.97 201.406 379.276 205.021 380.377C208.637 381.477 211.918 383.34 214.598 385.816C218.007 388.845 220.85 401.907 224.862 413.507C232.188 434.538 235.973 458.081 233.167 460.112C228.798 463.279 224.165 466.996 221.999 465.275C219.834 463.554 194.636 410.684 194.636 410.684" stroke="#263238" stroke-linecap="round" stroke-linejoin="round"/>
<path d="M224.862 413.507C231.528 432.232 241.208 460.129 238.628 461.988C234.259 465.155 224.165 467.013 221.999 465.206C220.53 464.002 206.764 434.882 200.192 421.785L224.862 413.507Z" fill="white" stroke="#263238" stroke-linecap="round" stroke-linejoin="round"/>
<path d="M214.429 427.826C214.429 427.826 210.135 417.276 208.553 416.019C206.971 414.763 192.696 405.693 192.696 405.693L192.508 408.739L200.135 413.903L192.602 412.835L192.809 415.692L201.811 419.134L192.395 418.601V421.63L200.813 422.886L192.395 425.038L193.261 426.845H201.208C201.208 426.845 203.355 433.109 206.105 435.071C208.267 436.305 210.79 436.905 213.336 436.792C213.336 436.792 216.199 460.215 221.886 465.223C227.574 470.232 241.265 471.075 241.66 463.02C242.056 454.966 240.474 453.056 234.41 448.237C228.346 443.418 214.429 427.826 214.429 427.826Z" fill="white" stroke="#263238" stroke-linecap="round" stroke-linejoin="round"/>
<path d="M192.753 439.821H172.678L170.794 406.192C170.769 405.711 170.952 405.24 171.305 404.882C171.658 404.525 172.151 404.309 172.678 404.282L191.096 403.249C191.369 403.235 191.642 403.272 191.899 403.359C192.155 403.445 192.39 403.579 192.588 403.752C192.785 403.924 192.942 404.132 193.048 404.363C193.155 404.593 193.208 404.841 193.205 405.091L192.753 439.821Z" fill="#263238" stroke="#263238" stroke-linecap="round" stroke-linejoin="round"/>
<path d="M103.601 449.321L157.668 430.889C157.668 430.889 164.034 426.518 164.994 425.64C165.955 424.762 171.68 420.993 171.68 420.993V425.347L193.958 431.457C193.958 431.457 193.017 433.798 191.736 433.798C191.736 433.798 195.502 434.951 195.502 436.121C195.606 436.976 195.49 437.842 195.163 438.648C194.836 439.455 194.307 440.181 193.619 440.768C191.736 442.231 180.568 443.401 175.804 443.401C170.333 442.974 164.901 442.192 159.552 441.06C159.552 441.06 120.776 467.117 114.354 469.44C107.933 471.763 97.1605 474.689 95.8799 467.409C94.5993 460.129 98.9119 447.755 98.9119 447.755" fill="white"/>
<path d="M103.601 449.321L157.668 430.889C157.668 430.889 164.034 426.518 164.994 425.64C165.955 424.762 171.68 420.993 171.68 420.993V425.347L193.958 431.457C193.958 431.457 193.017 433.798 191.736 433.798C191.736 433.798 195.502 434.951 195.502 436.121C195.606 436.976 195.49 437.842 195.163 438.648C194.836 439.455 194.307 440.181 193.619 440.768C191.736 442.231 180.568 443.401 175.804 443.401C170.333 442.974 164.901 442.192 159.552 441.06C159.552 441.06 120.776 467.117 114.354 469.44C107.933 471.763 97.1605 474.689 95.8799 467.409C94.5993 460.129 98.9119 447.755 98.9119 447.755" stroke="#263238" stroke-linecap="round" stroke-linejoin="round"/>
<path d="M191.736 433.763C185.585 433.341 179.47 432.554 173.431 431.405" stroke="#263238" stroke-miterlimit="10"/>
<path d="M194.862 437.498C194.862 437.498 178.61 437.308 173.713 435.88" stroke="#263238" stroke-miterlimit="10"/>
<path d="M174.297 440.544C174.297 440.544 186.821 442.145 192.113 441.439" stroke="#263238" stroke-miterlimit="10"/>
</g>
<defs>
<clipPath id="clip0_21_69">
<rect width="1366" height="768" fill="white"/>
</clipPath>
</defs>
</svg>
